<?xml version="1.0" encoding="utf-8"?>
<!-- Generator: Adobe Illustrator 27.5.0, SVG Export Plug-In . SVG Version: 6.00 Build 0)  -->
<svg version="1.1" id="Layer_1" xmlns="http://www.w3.org/2000/svg" xmlns:xlink="http://www.w3.org/1999/xlink" x="0px" y="0px"
	 viewBox="0 0 370.3 181.1" style="enable-background:new 0 0 370.3 181.1;" xml:space="preserve">
<style type="text/css">
	.st0{fill:#FFFFFF;}
</style>
<path class="st0" d="M46.3,1.7c14.6-0.9,28.8-1.5,42.9-1.1c2.2,0,5.4,5,6.3,8.3c10.3,38.2,20.1,76.7,30.1,114.9
	c3.9,14.8,7.8,29.7,11.6,44.5c3,11.6,2.2,12.6-10,12.6c-7.4,0-14.8-0.6-22.2,0.2c-7,0.6-9.6-2.4-11.3-8.9
	c-6.5-25.9-13.5-51.7-20.3-77.6c-1.1-4.1-2.4-8.1-4.2-14.2c-8.1,31.4-16.1,60.6-23.3,90c-2,8.1-5.5,11.3-13.9,10.5
	s-16.6-0.2-24.9-0.2c-5.5,0-8.3-1.9-6.7-7.8C15.4,116.2,30.6,59.3,46.3,1.7z"/>
<path class="st0" d="M271.3,120.3c0-37.1,0.2-73.5-0.2-109.7c0-8.3,2.8-10.5,10.7-10.5c26,0.4,52.3,0.4,78.3,0
	c7.8-0.2,10.5,2.6,10.2,10.2c-0.4,7.9-0.2,16.1,0,24c0.2,6.3-2.6,8.7-8.9,8.5c-15.3-0.4-30.7-0.2-46.7-0.2v26.6
	c10.9,0,21.2,0.4,31.6-0.2c8.7-0.4,11.6,3,10.9,11.3c-0.5,7-0.5,14.2,0,21.2c0.5,8.3-3,10.7-10.9,10.5c-10.3-0.4-20.9-0.2-31.8-0.2
	v26.4h43.4c8,0,12,4.1,12,12.4c0,7-0.2,14.2,0,21.2c0.2,6.1-2.2,8.9-8.7,8.9c-27.3-0.2-54.7-0.2-82,0c-6.5,0-8.5-3-8.3-9.1
	C271.5,155,271.3,138.2,271.3,120.3L271.3,120.3z"/>
<path class="st0" d="M182.4,77.8v39.7c0,10.7,4.8,18.3,12.9,21.2c9.2,3.3,17.7,0.9,24.2-7.9c3.9-5.4,7.6-6.1,13.1-2.8
	c6.5,4.1,13.3,7.8,20.1,11.3c6.1,3.1,7,6.5,3.1,12.4c-15.1,23.1-40.6,33.8-67.1,27.7c-25.7-5.9-45.6-26.6-47.5-53.4
	c-1.7-24.4-1.5-49.1,0.6-73.7c2-25.5,23.1-45.6,48.9-51C216-4,242.6,7.8,256.1,29.6c3.1,5.2,3.3,8.7-2.6,11.8
	c-7.4,3.9-14.4,8.1-21.6,12.4c-4.2,2.6-7.4,2.8-11.1-1.7c-7.9-10-16.3-12.6-25.7-9.2c-8.5,3.1-12.9,10.7-12.9,23.1
	C182.4,69.5,182.4,73.2,182.4,77.8L182.4,77.8z"/>
</svg>
