<?xml version="1.0" encoding="utf-8"?>
<!-- Generator: Adobe Illustrator 27.5.0, SVG Export Plug-In . SVG Version: 6.00 Build 0)  -->
<svg version="1.1" id="Layer_1" xmlns="http://www.w3.org/2000/svg" xmlns:xlink="http://www.w3.org/1999/xlink" x="0px" y="0px"
	 viewBox="0 0 185 77" style="enable-background:new 0 0 185 77;" xml:space="preserve">
<style type="text/css">
	.st0{fill:#1f2937;}
</style>
<path class="st0" d="M179.4,32.2c-1,0-2.1-0.4-2.7-0.7c-12.4-6.5-26.5-10.3-40.1-10.3c-1.7,0-3,0.1-4.6,0.2
	c2.6,4.1,7,10.1,10.1,13.7c0.8,0.9,1,1.5,1,2.4c0,1.6-1.7,3.1-3.5,3.1c-1.2,0-1.9-0.5-3-1.8c-3.7-4.3-9.3-12.1-11.9-16.4
	c-13,2.3-27.4,10-36,16.7c-1,0.8-1.7,1.1-2.6,1.1c-1.8,0-3.4-1.6-3.4-3.3c0-1,0.4-1.8,1.7-2.9c13-10.9,33.3-19.4,50.5-19.4
	c6.8,0,13.4,0.9,19.8,2.5c3.9,0.9,9.6,2.9,14.5,5c-12.8-7.7-28.8-14.8-39-14.8c-2.6,0-4.2,0.9-4.2,2.6c0,1,0.6,2.4,1.4,3.8
	c-2,0.2-4.7,0.6-6.7,1.2c-1.1-1.9-1.8-4-1.8-6.2c0-4.9,3.2-8,9.7-8c14.7,0,39.4,13.7,51.7,23.7c1.4,1.1,2.8,2.6,2.8,4.2
	C183.1,30.3,181.6,32.2,179.4,32.2"/>
<path class="st0" d="M20.7,61.4c0-0.9,0.5-1.4,1.4-1.4s1.3,0.5,1.3,1.4v1.5c0.7-1.5,2.3-2.9,3.7-2.9c0.9,0,1.4,0.5,1.4,1.3
	c0,0.7-0.4,1.2-1.6,1.5c-2.4,0.7-3.5,2.1-3.5,4.7V75c0,0.9-0.5,1.4-1.3,1.4s-1.4-0.5-1.4-1.4V61.4z"/>
<path class="st0" d="M81,61.4c0-0.9,0.5-1.4,1.4-1.4c0.8,0,1.3,0.5,1.3,1.4v1.5c0.7-1.5,2.3-2.9,3.7-2.9c0.9,0,1.4,0.5,1.4,1.3
	c0,0.7-0.4,1.2-1.6,1.5c-2.5,0.7-3.5,2.1-3.5,4.7V75c0,0.9-0.5,1.4-1.3,1.4S81,75.9,81,75V61.4L81,61.4z"/>
<path class="st0" d="M36.1,59.9c2.6,0,4.3,1.1,4.3,2c0,0.6-0.4,1.1-1.1,1.1c-1,0-1.4-0.8-3.3-0.8c-3.1,0-4.6,2.7-4.6,5.9
	c0,3.5,1.8,5.9,4.6,5.9c2,0,2.4-0.8,3.4-0.8c0.6,0,1,0.4,1,1s-0.5,1.1-1.4,1.5c-0.8,0.4-1.8,0.6-2.9,0.6c-4.6,0-7.3-3.4-7.3-8.3
	C28.8,63.5,31.6,59.9,36.1,59.9"/>
<path class="st0" d="M44.4,69.2c0.1,2.6,1.8,4.9,4.8,4.9c3.2,0,3.9-1.8,5-1.8c0.6,0,1.1,0.4,1.1,1.1c0,1.3-2.9,3-6.1,3
	c-2.4,0-4-0.8-5.2-2c-1.5-1.6-2.3-3.9-2.3-6.3c0-4.4,2.7-8.3,7.3-8.3c4.2,0,6.9,3.7,6.9,7.9c0,0.9-0.4,1.4-1.5,1.4L44.4,69.2
	L44.4,69.2z M53.2,67.2c0-2.3-1.3-4.9-4.3-4.9c-2.9,0-4.4,2.3-4.5,4.9H53.2z"/>
<path class="st0" d="M61.4,75c0,0.9-0.5,1.4-1.3,1.4s-1.3-0.5-1.3-1.4V55.9c0-0.9,0.5-1.4,1.3-1.4s1.3,0.5,1.3,1.4V75z"/>
<path class="st0" d="M71.2,76.5c-4.3,0-7.1-3.4-7.1-8.3s2.8-8.3,7.1-8.3c4.3,0,7.1,3.4,7.1,8.3C78.3,73.1,75.4,76.5,71.2,76.5
	 M71.2,74.1c2.6,0,4.4-2.3,4.4-5.9s-1.8-5.9-4.4-5.9s-4.4,2.3-4.4,5.9C66.8,71.8,68.5,74.1,71.2,74.1"/>
<path class="st0" d="M107.4,61c-1.5,5.2-4,13.6-4.2,14.3c-0.2,0.8-0.7,1.1-1.4,1.1c-0.7,0-1.2-0.3-1.4-1.1
	c-0.2-0.7-2.8-9.6-4.3-14.7c-0.2-0.8-0.5-1.8-0.6-2.7c-0.1,0.8-0.2,1.8-0.4,2.7c-0.8,4.8-2,12.3-2.3,14.4c-0.1,0.9-0.6,1.3-1.4,1.3
	c-0.7,0-1.2-0.5-1.2-1.3c0-0.3,0.1-0.7,0.2-1.2c0,0,2.7-16.2,2.9-17.5c0.2-1.3,0.9-2,2-2c1,0,1.8,0.6,2.1,1.7
	c0.2,0.7,2.4,8.3,3.8,13.1c0.3,0.9,0.5,1.9,0.7,2.9c0.2-0.9,0.4-1.9,0.7-2.8c1.4-4.8,3.6-12.5,3.8-13.2c0.3-1.1,1-1.7,2-1.7
	s1.8,0.7,2,2c0.2,1.2,2.9,17.5,2.9,17.5c0.1,0.5,0.1,0.9,0.1,1.2c0,0.8-0.5,1.3-1.2,1.3c-0.8,0-1.3-0.4-1.4-1.3
	c-0.3-2.1-1.5-9.2-2.2-14c-0.2-1-0.3-2.1-0.4-3.1C108,58.9,107.7,60,107.4,61"/>
<path class="st0" d="M118.1,55.2c0.9,0,1.6,0.7,1.6,1.6s-0.7,1.6-1.6,1.6s-1.6-0.7-1.6-1.6S117.2,55.2,118.1,55.2 M119.5,61.4
	c0-0.9-0.5-1.4-1.3-1.4s-1.3,0.5-1.3,1.4V75c0,0.9,0.5,1.4,1.3,1.4s1.3-0.5,1.3-1.4V61.4z"/>
<path class="st0" d="M124.2,56.6c0-0.9,0.5-1.4,1.3-1.4s1.3,0.5,1.3,1.4v3.5h1.1c0.9,0,1.3,0.4,1.3,1.2s-0.5,1.2-1.3,1.2h-1.1V75
	c0,0.9-0.5,1.4-1.3,1.4s-1.3-0.5-1.3-1.4V62.4h-1c-0.9,0-1.3-0.4-1.3-1.2s0.5-1.2,1.3-1.2h1C124.2,60.1,124.2,56.6,124.2,56.6z"/>
<path class="st0" d="M132.6,56.6c0-0.9,0.5-1.4,1.3-1.4s1.3,0.5,1.3,1.4v3.5h1.1c0.9,0,1.3,0.4,1.3,1.2s-0.5,1.2-1.3,1.2h-1.1V75
	c0,0.9-0.5,1.4-1.3,1.4s-1.3-0.5-1.3-1.4V62.4h-1c-0.9,0-1.3-0.4-1.3-1.2s0.5-1.2,1.3-1.2h1V56.6z"/>
<path class="st0" d="M17.8,74c-0.6-1.5-5.8-15.6-6.6-17.8c-0.4-1.1-1-1.7-2.1-1.7s-1.6,0.6-2,1.7C6.7,57.2,1,72.5,0.4,74
	c-0.3,0.7-0.3,1-0.3,1.3c0,0.7,0.6,1.2,1.3,1.2s1.1-0.4,1.4-1c0.1-0.4,0.9-2.5,1.8-5.1h9.2c0.9,2.5,1.6,4.5,1.8,5.1s0.6,1,1.3,1
	s1.4-0.4,1.4-1.1C18.2,75,18.1,74.8,17.8,74 M5.4,68c1.1-3.1,2.3-6.5,3.1-8.8c0.2-0.6,0.4-1.2,0.6-1.7c0.2,0.5,0.4,1.2,0.6,1.7
	c0.8,2.3,2,5.7,3.1,8.8H5.4z"/>
<path class="st0" d="M159.7,75c0,0.9-0.5,1.4-1.4,1.4c-0.8,0-1.3-0.5-1.3-1.4V55.9c0-0.9,0.5-1.4,1.3-1.4s1.4,0.5,1.4,1.4V75z"/>
<path class="st0" d="M151.9,59.9c-0.8,0-1.3,0.5-1.3,1.4v1.2c-1-1.6-2.6-2.6-4.6-2.6c-4.1,0-6.9,3.4-6.9,8.3s2.8,8.3,6.9,8.3
	c2,0,3.6-1,4.6-2.6V75c0,0.9,0.5,1.4,1.3,1.4s1.3-0.5,1.3-1.4V61.4C153.2,60.5,152.7,59.9,151.9,59.9 M146.1,74.1
	c-2.6,0-4.4-2.3-4.4-5.9s1.8-5.9,4.4-5.9c2.6,0,4.4,2.3,4.4,5.9C150.6,71.8,148.8,74.1,146.1,74.1"/>
</svg>
