<?xml version="1.0" encoding="utf-8"?>
<svg version="1.1" id="Layer_1" xmlns="http://www.w3.org/2000/svg" xmlns:xlink="http://www.w3.org/1999/xlink" x="0px" y="0px"
	 viewBox="0 0 446 206" style="enable-background:new 0 0 446 206;" xml:space="preserve">
<style type="text/css">
	.st0{fill:#1f2937;}
</style>
<g transform="translate(0.000000,206.000000) scale(0.100000,-0.100000)">
	<path class="st0" d="M2139,2022c-71-34-150-71-484-224c-71-33-168-78-213-100c-46-22-102-46-124-54c-23-8-55-23-72-33
		s-65-33-106-50c-41-18-84-37-94-42c-11-6-74-36-140-66c-67-30-157-72-201-92c-100-47-259-121-435-201c-74-34-166-76-203-94l-69-32
		l94-43c51-24,129-60,173-81s145-68,225-105s183-85,230-107c47-23,137-64,200-93s129-59,145-68c17-8,91-43,165-77s167-77,205-95
		c39-18,135-63,215-100s179-83,220-102c41-20,138-65,214-100l139-64l71,35c39,19,157,74,261,122c105,47,222,101,260,119
		c39,18,126,59,195,90c177,80,317,145,452,209c64,31,123,56,130,56c8,0,18,4,24,9c5,5,70,37,144,71s167,76,205,95
		c39,18,131,61,205,95s170,78,213,98l78,37l-68,32c-37,17-124,57-193,88s-150,68-180,82s-102,47-160,73c-213,95-558,253-645,294
		c-49,24-101,47-115,51s-64,28-112,51c-48,24-90,44-94,44s-35,13-68,29c-111,54-370,173-419,192c-27,11-79,35-117,54s-71,35-72,34
		C2216,2059,2181,2042,2139,2022z M2306,1731c49-21,127-56,174-78s119-55,160-73s80-36,85-40c6-4,50-24,98-44c49-20,98-43,110-51
		c12-7,58-28,102-46c44-17,85-35,90-39c6-4,57-29,115-55s155-69,215-97c61-28,157-72,215-98s113-50,123-54c29-9,19-23-35-46
		c-82-35-327-148-383-176c-27-14-88-41-135-61c-47-19-90-39-96-44c-7-5-52-27-100-48c-115-50-378-171-604-278c-63-30-143-65-176-79
		l-62-24l-193,90c-107,49-221,103-254,119s-125,60-205,96c-80,37-183,85-230,108c-47,22-107,50-135,62c-27,12-86,39-130,60
		c-291,137-417,195-425,195c-28,0-2,20,58,45c37,15,81,36,97,46c17,9,53,26,80,37c28,11,93,40,145,65c52,24,151,70,220,102
		c69,31,188,86,265,122c182,84,331,152,480,220c66,30,140,66,165,78c25,13,52,24,61,24C2209,1770,2257,1753,2306,1731z"/>
	<path class="st0" d="M2055,1634c-77-36-150-69-163-74l-22-10l2-515l3-515l120-56c66-30,126-58,133-61c9-4,12,41,12,205v210l28,10
		c15,5,34,13,42,16c12,5,24-11,49-66c18-40,58-123,87-185c30-62,54-117,54-122c0-10,95,26,197,76l60,29l-34,80c-20,43-46,102-58,130
		c-13,27-40,87-60,132l-36,83l51,64c68,85,102,169,108,268c8,133-32,198-158,251c-36,16-75,35-88,43c-29,18-163,73-177,72
		C2200,1699,2132,1670,2055,1634z M2330,1421c16-16,32-41,36-57c11-44-13-112-58-166c-44-53-78-75-124-80l-29-3l-3,158
		c-3,181-6,175,96,176C2294,1450,2306,1446,2330,1421z"/>
	<path class="st0" d="M2770,1044c0-382,1-405,18-400c9,3,82,34,162,69l145,63l3,266l2,266l-52,20c-29,11-101,43-161,71
		c-59,28-110,51-112,51C2772,1450,2770,1267,2770,1044z"/>
	<path class="st0" d="M1505,1385c-38-18-126-60-195-93l-125-60l-77-151l-77-150l102-55c141-76,136-74,150-37s11,37,130-6l78-28
		l17-59l16-59l71-32c205-95,208-96,203-78c-3,10-17,72-32,138c-16,66-50,203-76,305c-27,102-51,201-55,220c-19,104-40,180-49,179
		C1580,1419,1544,1404,1505,1385z M1423,1023c8-21,14-39,13-41c-2-1-18,4-37,11c-19,8-42,17-52,20c-29,11-4,47,32,47
		C1403,1060,1410,1054,1423,1023z"/>
</g>
</svg>
