<?xml version="1.0" encoding="utf-8"?>
<svg version="1.1" id="Ebene_1" xmlns="http://www.w3.org/2000/svg" xmlns:xlink="http://www.w3.org/1999/xlink" x="0px" y="0px"
	 viewBox="0 0 1024 185.9" style="enable-background:new 0 0 1024 185.9;" xml:space="preserve">
<style type="text/css">
	.st0{fill-rule:evenodd;clip-rule:evenodd;fill:#1f2937;}
</style>
<path class="st0" d="M995.1,0c15.8,0,28.6,12.9,28.6,28.6s-12.9,28.6-28.6,28.6s-28.7-12.9-28.7-28.6C966.4,12.9,979.3,0,995.1,0
	 M995.1,5.2c13,0,23.5,10.5,23.5,23.5c0,12.9-10.5,23.5-23.5,23.5c-12.9,0-23.4-10.6-23.4-23.5C971.7,15.7,982.2,5.2,995.1,5.2z"/>
<path class="st0" d="M989.2,26.2V16.1h6.8c3.4,0,7.1,0.7,7.1,4.8c0,4.9-3.8,5.3-7.9,5.3H989.2 M989.2,30.4h5.7l8.6,14.2h5.6
	l-9.2-14.4c4.7-0.6,8.4-3.1,8.4-9c0-6.3-3.8-9.2-11.5-9.2h-12.4v32.6h4.9V30.4H989.2z"/>
<path class="st0" d="M217.1,22.9c0-4.7,4-8.6,8.6-8.6h40c4.6,0,8.6,3.9,8.6,8.6v121.6c0,6.2,5.1,11.4,11.4,11.4H320
	c6.7,0,11.4-5.6,11.4-11.4V22.9c0-4.7,3.9-8.6,8.6-8.6h40.1c4.7,0,8.6,3.9,8.6,8.6V163c0,11.2-9,22.9-22.9,22.9H240
	c-13.1,0-22.9-10.8-22.9-22.9V22.9"/>
<path class="st0" d="M720.5,177.3c0,4.7-3.9,8.6-8.6,8.6h-40.1c-4.7,0-8.5-3.8-8.5-8.5V55.8c0-6.5-5.2-11.4-11.4-11.4h-34.3
	c-6.4,0-11.5,5.3-11.5,11.4v121.6c0,4.7-3.8,8.5-8.4,8.5h-40.2c-4.6,0-8.7-3.8-8.7-8.5l0.1-121.6c0-6.3-5.3-11.4-11.4-11.4h-34.3
	c-6.2,0-11.4,5.2-11.4,11.4v121.6c0,4.7-3.9,8.5-8.5,8.5h-40.1c-4.6,0-8.7-3.8-8.7-8.5l0.2-154.5c0-4.7,4-8.6,8.6-8.6h254.6
	c12.3,0,22.9,9.9,22.9,22.9L720.5,177.3"/>
<path class="st0" d="M171.3,177.3c0,4.7-3.9,8.6-8.6,8.6H22.6c-13.5,0-22.9-11.1-22.9-22.9v-55.8c0-12,9.5-22.9,22.9-22.9h80.1
	c6.4,0,11.4-5.2,11.4-11.4v-20c0-6.2-5-11.4-11.4-11.4h-83c-4.6,0-8.6-4-8.6-8.6v-10c0-4.7,4-8.6,8.6-8.6h128.7
	c15.4,0,22.9,7.7,22.9,22.9L171.3,177.3 M62.7,110.1c-6.2,0-11.4,5.2-11.4,11.4v28.6c0,6.9,5.8,11.4,11.4,11.4h40
	c6.2,0,11.4-4.8,11.4-11.4v-28.6c0-7.9-3.8-11.4-11.4-11.4C102.7,110.1,62.7,110.1,62.7,110.1z"/>
<path class="st0" d="M937.9,177.3c0,4.7-3.9,8.6-8.6,8.6H789.2c-13.5,0-22.9-11.1-22.9-22.9v-55.8c0-12,9.5-22.9,22.9-22.9h80.1
	c6.4,0,11.4-5.2,11.4-11.4v-20c0-6.2-5-11.4-11.4-11.4h-83c-4.6,0-8.6-4-8.6-8.6v-10c0-4.7,4-8.6,8.6-8.6H915
	c15.5,0,22.9,7.7,22.9,22.9V177.3 M829.2,110.1c-6.2,0-11.5,5.2-11.5,11.4v28.6c0,6.9,5.8,11.4,11.4,11.4h40.1
	c6.2,0,11.4-4.8,11.4-11.4v-28.6c0-7.9-3.8-11.4-11.4-11.4C869.3,110.1,829.2,110.1,829.2,110.1z"/>
</svg>
