<?xml version="1.0" encoding="utf-8"?>
<svg version="1.1" id="Layer_1" xmlns="http://www.w3.org/2000/svg" xmlns:xlink="http://www.w3.org/1999/xlink" x="0px" y="0px"
	 viewBox="0 0 819 228" style="enable-background:new 0 0 819 228;" xml:space="preserve">
<style type="text/css">
	.st0{fill:#1f2937;}
</style>
<g transform="translate(0.000000,228.000000) scale(0.100000,-0.100000)">
	<path class="st0" d="M620,1894c-80-69-152-132-160-140c-12-12-11-17,12-41c14-16,31-38,37-50c25-49,30-28-209-953
		c-38-146-78-299-89-340s-21-81-21-88c0-10,119-12,599-10l599,3l39,31c116,94,204,345,207,589c1,78-2,94-22,122l-22,32l30,44
		c42,62,66,123,100,251c74,281,84,380,45,457c-24,47-72,97-120,122c-39,21-52,22-405,24c-201,2-373,3-382,3c-10,0-33,16-52,35
		c-20,19-37,35-38,35C766,2020,699,1963,620,1894z M1432,1683c26-24,23-85-13-221c-17-64-35-133-40-152c-5-20-18-46-29-58
		c-20-21-29-22-185-22c-91,0-165,3-165,6c0,6,77,282,111,397l20,67h141C1390,1700,1417,1697,1432,1683z M1241,960
		c29-16,24-67-25-244c-60-216-48-206-248-206c-91,0-158,4-158,9c0,6,22,90,49,188s54,197,61,221l11,42h145
		C1157,970,1230,965,1241,960z"/>
	<path class="st0" d="M4392,1928c-78-68-94-90-73-103c6-3,13-24,16-48c6-44,8-36-134-587c-34-129-61-236-61-237c0-2,76-3,170-3h169
		l11,43c27,102,123,423,129,430c4,4,52-97,106-224s103-233,109-235c7-3,86-3,177-2l166,3l-133,310c-74,170-134,310-134,311
		s102,78,226,171l226,168l-64,6c-34,4-93,7-129,8l-66,1l-218-150c-121-82-220-148-222-147c-1,2,15,69,36,150l39,147h-90
		c-86,0-92,1-125,30c-18,17-37,30-42,30C4477,2000,4437,1968,4392,1928z"/>
	<path class="st0" d="M5755,1924c-86-77-86-77-67-98c28-30,42-61,42-91c0-14-39-94-86-178c-48-84-127-224-177-312
		c-49-88-103-181-119-208c-15-26-28-52-28-57c0-6,34-10,79-10h79l57,95l56,95h204h204l10-37c5-21,15-65,22-98l14-60l165,4
		c91,2,167,5,169,7s-24,133-58,292c-53,240-79,357-146,650c-5,21-9,22-123,22c-114,1-118,1-156,30c-22,17-43,30-47,30
		C5844,2000,5802,1966,5755,1924z M5914,1488c21-84,40-159,43-165c4-10-28-13-137-13h-142l38,68c98,178,147,262,153,262
		C5873,1640,5893,1571,5914,1488z"/>
	<path class="st0" d="M6765,1930c-44-39-80-74-80-78c1-4,9-24,20-44l18-37l-97-383c-53-211-99-391-102-400c-5-16,3-18,78-18h84
		l84,293c46,160,86,296,90,300s63-110,131-255c68-144,133-280,144-303l20-40l111-3l110-3l48,178c26,98,78,295,116,438s76,282,84,308
		l14,48l-86-3c-82-3-86-4-93-28c-68-236-130-444-133-447c-4-4-82,152-197,394l-39,81l-95,7c-90,7-97,9-116,36c-11,16-23,29-27,29
		S6809,1968,6765,1930z"/>
	<path class="st0" d="M3133,1909l-93-71l20-29c12-15,25-31,30-34c21-13,7-101-46-291c-60-213-144-517-144-521c0-2,42-3,94-3h94
		l22,83c12,45,44,161,71,257s49,181,49,187c0,41,34-15,152-252l133-265l132-2c73-1,147-2,164-2l32-1l47,180c27,99,82,311,124,470
		c42,160,79,298,83,309c5,18,0,18-88,11c-52-4-95-8-96-9c-3-3-100-349-133-476c-13-47-26-89-31-94c-4-5-67,111-140,257l-133,265
		l-102,31c-56,17-109,40-119,51s-21,20-24,20S3183,1948,3133,1909z"/>
	<path class="st0" d="M2087,1886c-117-97-110-87-92-124c15-30,13-43-75-394c-50-200-93-370-96-379c-4-15,32-17,393-21
		c219-3,401-2,404,1c4,3,18,48,32,100l26,93l-197-3c-183-4-197-3-196,14c1,9,12,58,24,107c16,66,27,90,39,91c9,1,101,4,205,8l188,6
		l17,67l17,66l-198,7c-109,4-198,9-198,11c0,5,31,137,41,177l10,37h199h199l21,73c12,39,24,80,26,90c5,16-15,17-324,17
		c-281,0-331,2-342,15c-7,8-18,15-24,15C2180,1959,2136,1926,2087,1886z"/>
	<path class="st0" d="M7854,861c-107-48-137-174-61-255c63-66,157-72,224-13c93,82,79,199-32,259C7926,883,7908,884,7854,861z
		 M8004,809c42-37,58-85,45-133c-5-19-25-48-45-65c-84-74-234-11-234,99c0,37,32,91,64,111c20,12,50,19,83,19
		C7961,840,7975,835,8004,809z"/>
	<path class="st0" d="M7860,716c0-52,3-66,15-66c9,0,15,9,15,25c0,14,5,25,11,25s20-11,31-25s26-25,34-25c18,0,18,9-2,32
		c-13,14-14,21-5,32c7,8,11,25,9,38c-3,20-9,23-55,26l-53,3V716z M7938,743c5-17-26-29-40-15c-6,6-7,15-3,22
		C7904,764,7932,759,7938,743z"/>
	<path class="st0" d="M2191,702c-12-38-24-83-27-100l-7-32l2718,2l2717,3l28,92c15,51,25,95,22,98s-1226,5-2718,5H2211L2191,702z"/>
</g>
</svg>
