<?xml version="1.0" encoding="utf-8"?>
<svg version="1.1" id="Layer_1" xmlns="http://www.w3.org/2000/svg" xmlns:xlink="http://www.w3.org/1999/xlink" x="0px" y="0px"
	 viewBox="0 0 180 27.4" style="enable-background:new 0 0 180 27.4;" xml:space="preserve">
<style type="text/css">
	.st0{fill:#1f2937;}
</style>
<g id="Ebene_2">
	<g id="Ebene_1-2">
		<g>
			<path class="st0" d="M180,0h-30.8l15.4,27.3L180,0z M165.8,18.9V9.8l7.7-4.4L165.8,18.9L165.8,18.9z M155.7,5.4l7.7,4.4v9.1
				L155.7,5.4z M172.4,3.4l-7.8,4.5L157,3.4H172.4z"/>
			<path class="st0" d="M13.6,13.3c2.6-0.1,4.7-2.3,4.7-5V5c0-2.7-2.1-4.9-4.8-5H0v27.3h14.2c2.6-0.2,4.6-2.4,4.6-5v-4.1
				C18.7,15.5,16.5,13.3,13.6,13.3C13.7,13.3,13.6,13.3,13.6,13.3z M12.3,11.3H6V5h6.2v6.3H12.3z M12.7,22.4H6v-6.8h6.7V22.4
				L12.7,22.4z"/>
			<path class="st0" d="M139.5,13.3c2.6-0.1,4.7-2.3,4.7-5V5c0-2.7-2.1-4.9-4.8-5h-13.5v27.3h6V15.6h6.7v11.7h6v-9
				C144.6,15.5,142.3,13.3,139.5,13.3L139.5,13.3L139.5,13.3z M138.1,11.3h-6.2V5h6.2V11.3L138.1,11.3z"/>
			<path class="st0" d="M98.3,27.3c-2.7,0-4.9-2.2-4.9-5V0h6.5v22.3h6.5v5H98.3z"/>
			<polygon class="st0" points="63.3,27.3 63.3,4.5 57.8,4.5 57.8,0 75.4,0 75.4,4.5 69.8,4.5 69.8,27.3 			"/>
			<path class="st0" d="M37.9,5c0-2.7,2.2-4.9,4.9-5h8.9c2.7,0,4.9,2.2,4.9,5v22.3h-6V4.5H44v22.8h-6C37.9,27.3,37.9,5,37.9,5z"/>
			<path class="st0" d="M25.7,27.3c-2.7,0-4.9-2.2-4.9-5V5c0-2.7,2.2-4.9,4.9-5h10.5v5h-9.4v6.3H35v4.3h-8.3v6.8h9.4v5
				C36.2,27.3,25.7,27.3,25.7,27.3z"/>
			<path class="st0" d="M81.4,27.3c-2.7,0-4.9-2.2-4.9-5V5c0-2.7,2.2-4.9,4.9-5h10.5v5h-9.4v6.3h8.3v4.3h-8.3v6.8h9.4v5L81.4,27.3
				L81.4,27.3z"/>
			<path class="st0" d="M113.3,27.3c-2.7,0-4.9-2.2-4.9-5V5c0-2.7,2.2-4.9,4.9-5h10.5v5h-9.4v6.3h8.2v4.3h-8.2v6.8h9.4v5
				C123.8,27.3,113.3,27.3,113.3,27.3z"/>
		</g>
	</g>
</g>
</svg>
