<?xml version="1.0" encoding="utf-8"?>
<!-- Generator: Adobe Illustrator 27.5.0, SVG Export Plug-In . SVG Version: 6.00 Build 0)  -->
<svg version="1.1" id="Layer_1" xmlns="http://www.w3.org/2000/svg" xmlns:xlink="http://www.w3.org/1999/xlink" x="0px" y="0px"
	 viewBox="0 0 1920 546" style="enable-background:new 0 0 1920 546;" xml:space="preserve">
<style type="text/css">
	.st0{fill:#ffffff;}
</style>
<path class="st0" d="M127.1,203c0-52.8,0-105.1,0-157.9c108.2,0,216,0,324.2,0c0,152.5,0,304.9,0,457.6c-107.9,0-215.7,0-324.2,0
	C127.1,403,127.1,303.3,127.1,203 M244.3,278.9c-1.6,8.8-2.5,17.8-4.9,26.4c-8.5,30.4-26,55.5-47.3,78.2c-1.8,1.9-3.1,5.1-3.2,7.7
	c-0.4,9.3-0.2,18.7-0.2,28c0,7.8,0,15.6,0,23.9c-12.4,0-24.3,0-36.5,0c0,18.9,0,37.3,0,55.7c91.7,0,183.1,0,274.4,0
	c0-18.7,0-37.1,0-55.9c-12.3,0-24.2,0-36.5,0c0-17.6,0.1-34.7-0.1-51.8c0-2.5-1.3-5.5-2.9-7.3c-15.4-16.5-29.1-34.3-38.6-54.9
	c-10.2-21.9-16.1-44.7-13.7-69.1c0.2-2-1.3-4.7-2.9-6.3c-3.2-3.4-5-6.9-4.8-11.9c0.4-11,0.1-22,0.1-33c0-4.8,0-9.6,0-14.8
	c-4.4,0-8.1,0-12.2,0c0-2.3,0-4.1,0-5.9c0-34.2,0-68.3,0-102.5c0-1.9-0.1-4.4-1.2-5.5c-8.5-8-17.2-15.6-26-23.6
	c-5.8,6-12.9,13.7-20.3,21.1c-2.4,2.4-3.2,5-3.2,8.4c0.1,34.2,0.1,68.3,0.1,102.5c0,1.8,0,3.5,0,5.8c-4.4,0-8.2,0-12.3,0
	c0,16.8,0.1,33.1-0.1,49.4c0,2.5-1,5.7-2.7,7.5c-4.1,4.2-5.7,8.3-4.4,14.2C245.5,269.1,244.5,273.6,244.3,278.9z"/>
<path class="st0" d="M1766.8,176c0,25.8,0,51.1,0,77.2c8,0,15.6,0,23.2,0c3.9,0,3.9,0.1,3.6,4.5c-32.2,0-64.5,0-97,0
	c-1.3-3-0.7-4.6,2.9-4.5c7.6,0.1,15.2,0,23.2,0c0-68.1,0-135.6,0-204.5c-5.9,16.6-11.3,31.9-16.7,47.2
	c-18.6,52.7-37.1,105.4-55.7,158c-0.6,1.6-2.6,2.7-4,4.1c-1.2-1.3-3.1-2.3-3.6-3.8c-22.1-62.2-44.2-124.4-66.2-186.6
	c-2-5.5-3.9-11.1-6.5-16.5c0,67.1,0,134.2,0,202.2c7.9,0,15.7,0.1,23.4,0c3.2,0,4.3,1.1,3.1,4.5c-19.5,0-39.1,0-58.9,0
	c-1.2-3.1-0.6-4.6,3.1-4.5c7.8,0.1,15.6,0,23.8,0c0-68.2,0-135.9,0-204.3c-7.8,0-15.4,0.1-23-0.1c-1.5,0-3-1.5-4.4-2.3
	c1.5-0.8,2.9-2.3,4.4-2.3c22.8-0.1,45.7,0,68.5-0.2c3.3,0,4.6,1.2,5.6,4.2c16,46.5,32.2,93,48.3,139.4c0.6,1.7,1.3,3.3,2.4,6
	c6.4-18.1,12.4-35.2,18.5-52.2c11-31.2,22.1-62.3,33-93.6c1-2.8,2.2-3.9,5.3-3.9c22.3,0.1,44.7,0.1,67,0c3.3,0,4.7,0.9,3.4,4.7
	c-8.6,0-17.2,0-26.7,0C1766.8,91.4,1766.8,133.4,1766.8,176z"/>
<path class="st0" d="M1300,244.9c0,2.8,0,5.1,0,8.3c8.1,0,15.8,0,23.6,0c3.9,0,3.9,0.1,3.8,4.7c-2.3,0-4.5,0-6.8,0
	c-16.3,0-32.7,0.1-49-0.1c-1.4,0-2.8-1.3-4.2-2c1.4-0.9,2.8-2.5,4.3-2.6c7.6-0.3,15.2-0.1,23.1-0.1c0-68.2,0-135.8,0-204.3
	c-7,0-14.1,0.2-21.2-0.1c-2.1-0.1-6-1.3-6-1.9c0-4.5,3.8-2.6,6-2.6c21.8-0.1,43.7,0,65.5-0.2c3.9,0,5.8,0.9,7.2,4.9
	c15.9,46.2,32,92.3,48,138.5c0.6,1.7,1.3,3.4,2.4,6.2c2.2-6.1,4.1-11.1,5.9-16.2c15.2-42.9,30.3-85.9,45.4-128.9
	c1.2-3.4,2.8-4.6,6.4-4.6c21.8,0.2,43.7,0.1,65.5,0.1c2.7,0,5.8-0.3,4.4,4.7c-8.8,0-17.7,0-26.9,0c0,68.3,0,136,0,204.4
	c8,0,15.8,0,23.5,0c2.9,0,4.6,0.8,3.5,4.4c-32.5,0-65,0-97.7,0c-1.3-3.5,0-4.5,3.4-4.5c7.5,0.1,14.9,0,22.8,0
	c0-67.4,0-134.4,0-201.4c-0.2-0.1-0.4-0.1-0.6-0.2c-2.4,6.8-4.9,13.6-7.3,20.4c-18.1,51.4-36.3,102.8-54.4,154.2
	c-3.3,9.2-6.4,18.6-9.8,27.7c-0.6,1.6-2.4,3.3-4,3.8c-0.9,0.2-3-2-3.6-3.5c-23.8-66.9-47.4-133.8-71.1-200.7
	c-0.4-1.2-0.9-2.3-2.1-3.3C1300,114.9,1300,179.7,1300,244.9z"/>
<path class="st0" d="M1082,54.9c21.4,12.4,28.1,33.9,21,54.4c-4.5,13.1-14.9,20.7-27.3,25.3c-9.1,3.3-18.7,5.1-28.9,7.8
	c4,0.9,7.5,1.6,11,2.5c8.2,2,16.6,3.5,24.6,6.3c16.9,5.8,26.2,18.5,28.4,35.9c2.2,17.1,3.4,34.4,5.1,51.6c0.2,1.8,0.6,3.6,1,5.4
	c3,12,14.2,15.3,23.6,7c1.4-1.2,2.5-2.8,4-3.7c1.1-0.6,2.7-0.4,4.2,0.1c-4.5,7.4-10.9,12.4-18.8,13.2c-10.3,1-21.1,1.7-31.2-0.1
	c-17.8-3.2-28.7-17.6-29.9-35.9c-0.9-14.3-1.5-28.6-3.3-42.8c-0.9-7.1-3.4-14.3-6.8-20.6c-5.3-10-14.5-14.9-25.8-15.1
	c-8.1-0.2-16.2,0-24.6,0c0,35.8,0,71.1,0,107c8.9,0,17.8,0,26.8,0c1.1,3.1,1.5,5.1-2.3,5c-31.6,0-63.3,0-95.1,0
	c-1.3-3.1-1-4.8,2.8-4.8c7.8,0.1,15.6,0,23.9,0c0-68,0-135.7,0-204c-8.8,0-17.7,0-26.5,0c-1.6-3.5-1.1-5,2.7-5
	c34.5,0,69-0.5,103.5,0.1C1057.2,44.5,1070,48,1082,54.9 M1046.4,135c6.1-4.1,9.8-10.1,11.1-17.2c2.7-15.5,2.7-31.1-1-46.5
	c-2.3-9.5-7.4-17.1-17.1-20.6c-10.1-3.6-20.4-3.6-30.8-1.4c0,30.7,0,61.1,0,91.7C1021.5,141,1034.3,142.6,1046.4,135z"/>
<path class="st0" d="M494.8,193c0-48.1,0-95.7,0-144c-9.4,0-18.3,0-27.1,0c-1.8-4.7,0.6-4.9,3.7-4.9c30.3-0.1,60.7-0.2,91-0.4
	c12.2-0.1,24.4,1,35.8,5.3c7.4,2.8,14.6,6.5,21,11.2c19.2,14.3,20.5,45.6,3.6,60.7c-10.7,9.5-22.9,15.2-36.4,18.8
	c-3.8,1-7.7,1.7-11.6,3.1c6.2,1,12.4,1.9,18.5,3.1c17.1,3.4,32.4,10.1,43.3,24.4c13.5,17.7,15.1,52.4-13.5,71.6
	c-12.6,8.5-26.4,13.7-41.4,14.7c-17.7,1.2-35.6,1.1-53.4,1.2c-20.1,0.2-40.3,0-60.6,0c-1.3-3.2-1-4.9,2.8-4.8c7.8,0.1,15.6,0,24.2,0
	C494.8,233,494.8,213.3,494.8,193 M545.6,254.1c5.5,0,11,0.2,16.5,0c15.6-0.8,25.1-7.8,30-22.6c5.5-16.7,5.7-33.9,3.2-51.2
	c-1.3-8.7-4.9-16.5-10.7-23.2c-12.8-14.7-29.8-10.6-46.4-11.1c0,2.5,0,4.3,0,6.1c0,31.8,0.1,63.6-0.1,95.4
	C537.9,252.8,539.7,254.6,545.6,254.1 M565,139.8c12-3.1,20.1-10.2,22.4-22.7c2.8-15,2.7-30.2-1-45c-1.3-5.3-3.9-10.9-7.6-14.8
	c-11.4-11.9-26-9.9-40.3-8.3c0,31,0,61.4,0,92.6C547.4,141.1,555.8,140.5,565,139.8z"/>
<path class="st0" d="M747.3,224.6c-21.4-24.2-31.8-52.1-28-83.9c5.1-43.7,29.9-73.6,69.4-91.8c18.1-8.3,37.2-11.5,56.9-7.9
	c11.1,2,21.9,5.5,32.8,8.3c2.2,0.6,4.5,1.2,6.8,1.4c3.6,0.3,6.8-0.4,9.1-3.9c1-1.5,3.4-2.2,6.1-3.9c0,21.8,0,42,0,62.3
	c-3.5,1.6-4.4-0.2-5.5-3.2c-3.7-9.4-7.2-19-11.9-27.9c-9.2-17.2-23.6-27.9-43.4-29.7c-20.6-1.9-39.5,1.6-54,18.2
	c-8.2,9.5-12.4,20.8-14.7,32.8c-4.5,24.1-3,48.4-3,72.7c0,16.3,1.6,32.5,5.8,48.4c6.7,25.1,21.6,37.8,47.5,40.7
	c8.8,1,17.4,1,25.6-1.8c12.7-4.3,20.1-14,22-26.8c2.3-15,2.9-30.3,4.3-46.5c-5.7,0-10,0-14.2,0c-5,0-10,0.1-15-0.1
	c-1,0-1.9-1.2-2.8-1.9c0.9-0.7,1.7-1.6,2.7-2c0.7-0.3,1.6-0.1,2.5-0.1c27.5,0,55,0,82.5,0.1c1.7,0,3.4,1.4,5.1,2.1
	c-1.6,0.6-3.2,1.7-4.8,1.8c-4.5,0.3-8.9,0.1-14.2,0.1c0,23,0,45.7,0,68.4c-0.5,0.4-1,0.8-1.5,1.2c-1.9-1.2-4.1-2.1-5.6-3.7
	c-3.4-3.9-7.7-5-12.2-3.7c-7.1,2.1-14.3,4.3-21,7.6C828.3,274.6,776.5,256.9,747.3,224.6z"/>
<path class="st0" d="M1184,139c0-30.1,0-59.7,0-90.1c-8,0-15.6,0.1-23.2-0.1c-1.5,0-3-1.4-4.6-2.1c1.5-0.8,3-2.4,4.5-2.4
	c30.1-0.1,60.3-0.1,90.4-0.1c3.2,0,4.8,0.8,3.3,4.8c-8.6,0-17.4,0-26.6,0c0,2.4,0,4.1,0,5.9c0,64.1,0.1,128.3-0.1,192.4
	c0,4.9,1.4,6.3,6.2,6c6.8-0.4,13.6-0.1,20.6-0.1c1,2.8,1.4,4.8-2.4,4.8c-31.3,0-62.6,0-93.9-0.1c-0.5,0-0.9-0.3-1.4-0.5
	c-1.3-3.7,0.8-4.3,3.8-4.3c7.6,0,15.3,0,23.6,0C1184,215,1184,177.2,1184,139z"/>
<path class="st0" d="M877,445c-4.4-7.7-8.7-15-12.9-22.3c-0.3,0-0.6,0.1-0.9,0.1c0,26.6,0,53.1,0,80c-7.9,0-15.2,0-22.7,0
	c0-38.6,0-76.9,0-115.9c8,0,15.8-0.2,23.6,0.2c1.6,0.1,3.4,2.3,4.4,4c13.6,23.7,27.1,47.4,40.6,71.1c0.6,1.1,1.3,2.1,2.8,4.4
	c0-27.2,0-53,0-79.3c7.8,0,15.2,0,22.8,0c0,38.5,0,76.7,0,115.7c-7.8,0-15.5,0.1-23.3-0.1c-0.9,0-2-1.6-2.6-2.6
	C898.2,482,887.7,463.7,877,445z"/>
<path class="st0" d="M740.2,436.9c4.3,1.4,8.3,2.5,12.2,3.9c22.3,8.1,23,36.8,10.3,51c-7.1,8-16.1,12.3-26.5,13.6
	c-15.4,1.9-30.6,1.6-44.6-6.4c-11.1-6.4-18-18.8-17.2-31.8c3.7,0,7.5,0,11.2,0c3.8,0,7.6,0,11.3,0c5.5,16.8,16.3,22.6,34.7,18.5
	c3.9-0.9,8.1-2.4,11.2-4.9c7.4-6.1,5.8-16.4-3.1-19.6c-8.2-3-16.9-4.7-25.4-7c-5.3-1.4-10.6-2.7-15.9-4.2
	c-20.4-5.9-25.2-22.9-21-39.6c3.2-12.9,12.2-20.8,24.8-24.3c17.4-4.8,34.3-4.1,49.8,6.2c10.2,6.8,15,16.8,15,29.7
	c-7.3,0-14.1,0.1-20.8-0.1c-1.1,0-2.7-1.8-2.9-3c-1.4-7.2-5.9-11.5-12.6-13.3c-8.7-2.4-17.4-2.6-25.6,2.1c-4.5,2.6-6.3,6.7-5.9,11.8
	c0.3,4.8,3.2,7.7,7.5,8.9C717.6,431.1,728.7,433.9,740.2,436.9z"/>
<path class="st0" d="M1170.6,502.6c-26.2,0.4-52,0.5-77.8,0.6c-3,0-5.9,0-9.3,0c0-38.8,0-77.2,0-115.9c28.4,0,56.6,0,85.4,0
	c0,6,0,11.8,0,17.6c0,3.5-2.6,2.9-4.7,2.9c-16.5,0-33,0-49.5,0c-2.3,0-4.6,0-7.3,0c0,8.2,0,15.9,0,24.3c18.7,0,37.2,0,56.3,0
	c0,6.4,0.2,12.2-0.2,17.9c-0.1,1.1-2.9,2.7-4.5,2.7c-15.3,0.2-30.7,0.1-46,0.1c-1.8,0-3.6,0-5.6,0c0,9.9,0,19.1,0,29.1
	c21,0,42.1,0,63.5,0C1170.9,489,1170.9,495.6,1170.6,502.6z"/>
<path class="st0" d="M1545.5,389.2c9.9-1.9,19.3-1.7,28.4,1.7c16.6,6.1,24.4,25.5,16,41.1c-2,3.7-5.5,6.5-7.3,8.5
	c2.3,2.9,4.9,6,7.2,9.2c8.3,11.5,9.9,24,3.8,36.7c-5.9,12.3-16.7,18.4-29.9,19.5c-8.6,0.8-17.3,1-25.6-2.5
	c-12.8-5.4-19.7-15.2-20.8-28.7c-1-12.6,2.7-23.7,14.1-30.9c0.6-0.3,1-0.8,0.9-0.8c-3.3-5.1-7.6-9.5-9.5-14.9
	c-5.8-16.4,2.4-32.2,18.9-37.8C1542.8,389.9,1543.9,389.6,1545.5,389.2 M1573.1,466.8c-0.6-7.6-4.2-12.1-11.3-14
	c-6.5-1.7-12.5-0.6-17,4.4c-5.3,5.9-5,13.2-2.9,20.3c2,6.7,8.1,10.6,15.3,10.4c7.4-0.1,13.3-4.2,15.1-10.8
	C1573.2,474.1,1573,470.8,1573.1,466.8 M1551.8,434.1c6.2,1.8,12,1.2,16.4-3.9c4-4.6,3.9-10.1,2.1-15.5c-2.2-6.7-8-8.6-14.4-8.2
	c-7.2,0.4-11.7,4.4-12.8,10.4C1541.6,424.8,1544.1,430.2,1551.8,434.1z"/>
<path class="st0" d="M1366.1,506.1c-32.3,0.3-44.3-30.4-32.6-51.6c2.6-4.8,7.2-8.4,10.7-12.3c-2.7-3.7-6.5-7.4-8.5-11.9
	c-7.9-17.7,2.6-37.2,21.6-41c9.3-1.9,18.5-1.9,27.5,1.2c17.3,5.9,25.4,24.5,17.4,40.8c-1.9,3.9-5.5,6.9-9.2,11.3
	c0.1,0,1,0.1,1.7,0.5c12.7,8.1,17.2,25.4,12.9,38.8c-4.5,14-18,23.7-33.4,24.1C1371.6,506.1,1369.1,506.1,1366.1,506.1
	 M1352.9,469.6c0.2,13.7,9.1,20.8,21.7,17.4c10.5-2.8,13.3-15.3,9.4-25.6c-2.5-6.8-10.5-10.4-18.1-9
	C1357.7,453.9,1353.4,459.2,1352.9,469.6 M1355.1,417.1c0.2,3.1-0.1,6.4,0.8,9.3c2.5,7.3,11,10.5,19.1,7.5
	c7.2-2.7,10.4-11.1,7.4-19.2c-2-5.4-6.7-8.4-13.4-8.4C1362.4,406.2,1357.9,409.5,1355.1,417.1z"/>
<path class="st0" d="M974.3,397.3c18-17.9,54-15.3,69.1-2c8,7.1,13.1,15.8,15.4,26.2c0.3,1.2,0,2.6,0,4.4c-7.6,0-14.9,0.2-22.1-0.2
	c-1.2-0.1-2.7-2.5-3.4-4.1c-6.3-15.9-24.9-21.4-38.7-11.2c-6.2,4.6-9.4,11.3-11,18.5c-2.8,12.6-3.2,25.4,1.1,37.9
	c4.8,13.9,16.7,20.9,31,18.1c9.2-1.8,14.7-8,17.4-16.8c1-3.3,2.4-4.5,5.9-4.3c6.4,0.3,12.9,0.1,19.3,0.1
	c-1.7,22.9-21.2,41.6-43.7,42.3c-9.7,0.3-19.3,0.1-28.3-4.1c-12.9-6.1-21.7-16.2-25.8-29.7c-5.7-18.9-6.2-38.1,1.6-56.6
	C964.9,409.1,970,403.6,974.3,397.3z"/>
<path class="st0" d="M1423.7,410.2c-0.4-6.7-0.4-13.1-0.4-19.8c27,0,53.6,0,80.8,0c0,5.6,0.1,11-0.1,16.4c0,1.2-1,2.4-1.8,3.4
	c-21.2,24.1-34.3,52-39.1,83.8c-0.4,2.8-0.4,5.6-0.5,8.8c-7.7,0-15.3,0-23.7,0c2.1-35.3,18.3-64.4,40.3-92.3
	C1460.2,410.5,1442.1,410.5,1423.7,410.2z"/>
<path class="st0" d="M1292.2,434c0,23.1,0,45.7,0,68.7c-7.8,0-15.2,0-23.1,0c0-26.1,0-52,0-78.4c-9.1,0-17.7,0-26.6,0
	c0-5.3,0-10,0-15.2c13.8-1.2,28.3-1.5,30.9-20c6.2,0,12.1,0,18.8,0C1292.2,404,1292.2,418.8,1292.2,434z"/>
<path class="st0" d="M814.1,494.9c0,2.8,0,5.1,0,7.8c-8.1,0-15.8,0-23.8,0c0-38.5,0-76.9,0-115.5c7.8,0,15.4,0,23.8,0
	C814.1,423,814.1,458.7,814.1,494.9z"/>
<path class="st0" d="M708.7,239.1c-2.4,13.4-7.3,18.9-18.1,21.1c-10.6,2.2-21.7-5.1-24.2-15.7c-2.6-11,4.3-22.4,14.7-25.5
	C692.5,215.5,707.2,222.8,708.7,239.1z"/>
</svg>
