<?xml version="1.0" encoding="UTF-8"?>
<svg id="Layer_1" data-name="Layer 1" xmlns="http://www.w3.org/2000/svg" viewBox="0 0 604.34 661.38">
  <defs>
    <style>
      .cls-1 {
        fill: #ffffff;
      }
    </style>
  </defs>
  <path class="cls-1" d="m460.35,58.29c4.95,10.55,7.38,21.38,9.02,32.47,1.59,10.79,1.47,21.67,1.38,32.51,3.18.31,4.19-1.66,5.54-3,17.51-17.35,34.92-34.8,52.53-52.05,5.27-5.16,8.34-4.59,12.01,1.9,5.22,9.22,6.8,19.5,7.16,29.84,1.28,36.88-11.34,68.16-38.68,93.2-23.05,21.11-49.42,36.66-79.13,46.42-26.5,8.7-53.73,10.89-81.37,8.58-3.34-.28-4.92,1.11-6.5,3.41-6.92,10.08-10.48,21.48-12.96,33.28-1.16,5.53-1.92,11.15-3.18,16.66-.79,3.43.41,4.62,3.67,4.62,11.49,0,22.91,1.31,34.37,1.91,21.96,1.16,43.74,3.74,65.43,7.15,23.2,3.65,46.13,8.51,68.38,16.19,11.54,3.98,22.61,8.91,32.64,15.99,3.71,2.62,6.98,5.69,9.63,9.36,6.93,9.6,6.16,20.22-1.84,29.15-10.17,11.35-23.67,17.17-37.49,22.11-31.66,11.31-64.57,16.92-97.86,21.03-44.88,5.54-89.91,7.41-135.06,6.61-27.45-.49-54.88-1.71-82.23-4.65-27.82-2.99-55.45-6.84-82.69-13.25-4.1-.96-8.02-2.39-11.38-4.92-4.88-3.68-4.11-8.88,1.58-11.16,3.3-1.32,6.78-1.46,10.31-1.51,26.52-.37,52.83-2.71,78.67-8.95,29.14-7.04,56.4-18.14,79.6-37.76,7.66-6.48,14.61-13.63,20.64-21.66.79-1.06,1.67-2.12,1.25-3.67-1.76-1.67-4.02-1.27-6.13-1.28-17.5-.03-35.02-.58-52.49.13-28.75,1.17-57.46,3.1-86,7.24-22.28,3.23-44.28,7.47-65.74,14.3-5.71,1.82-11.27,4.04-16.67,6.71-1.91.95-4.04,1.92-6.1,2-3.95.16-7.81-.65-9.22-5.17-1.34-4.29,1.49-6.43,4.65-8.31,18.14-10.78,38.17-16.47,58.44-21.28,25.09-5.95,50.57-9.67,76.23-12.43,37.28-4.01,74.66-5.57,112.13-5.48,3.92,0,5.98-1.23,7.08-5.25,4.45-16.18,3.14-31.55-5.21-46.27-1.91-3.37-4.23-4.47-8.04-4.34-23.18.8-46.22.19-68.9-5.73-30.71-8.02-58.13-22.04-81.68-43.38-29.8-27-45.15-60.48-44.27-100.9.2-9.15,1.61-18.25,5.43-26.76,3.69-8.22,7.36-9.2,13.61-3.07,17.6,17.27,35.04,34.7,52.54,52.06,1.16,1.15,2.07,2.66,3.92,2.73,1.71-1.05,1.32-2.67,1.2-4.09-1.59-19.03,1.4-37.45,7.53-55.41,1.89-5.53,4.41-10.82,8.17-15.37,4.2-5.07,7.68-5.86,13.63-3.02,13.83,6.59,25.42,16.41,37.13,26.03,4.12,3.38,8.12,6.91,12.16,10.38,3.72,3.2,5.38,2.98,7.47-1.62,8.11-17.82,18.2-34.44,29.91-50.1,6.71-8.98,14.17-17.26,22.64-24.58,8.8-7.61,14.93-7.78,23.95-.39,14.87,12.2,25.9,27.66,36.22,43.67,6.33,9.82,11.57,20.23,16.62,30.76,2.64,5.51,3.79,5.73,8.38,1.85,14.25-12.04,28.04-24.67,44.46-33.85,2.03-1.13,4.14-2.18,6.32-2.96,4.91-1.76,8.48-.49,11.98,4.46,1.91,2.7,3.4,5.7,5.21,8.93m-196.32,116.62c-.02,4.18.47,8.32,1.41,12.38,6.2,27.03,24.81,53.1,59.73,49.91,12.28-1.12,22.6-5.77,30.66-14.81,19.69-22.11,23.68-48,15.51-75.55-7.01-23.63-21.96-42.37-40.94-57.84-9.22-7.52-12.82-7.71-22.21.34-25.96,22.24-44.48,48.55-44.15,85.57m-23.4,242.18c13.5.28,26.98-.43,40.47-.59,16.67-.21,33.32-1.04,49.87-2.58,29.12-2.69,58.19-6.25,86.56-13.84,14.84-3.97,29.69-8.31,42.37-17.24,11.53-8.12,12.07-13.84-.37-22.27-15.02-10.18-32.36-14.63-49.71-18.8-28.7-6.89-58.01-9.79-87.27-13.02-4.18-.46-6.25,1.22-8.04,4.87-14.42,29.38-36.04,52.13-64.03,68.97-8.03,4.83-16.43,8.93-24.7,13.6,4.63.3,9.26.6,14.85.91m-30.19-297.75c-10.68,33.78-1.51,62.93,21.05,88.76,11.68,13.37,29.92,24.61,36.64,23.14-.39-1.78-1.97-2.62-3.09-3.78-7.64-7.88-13.45-16.93-17.47-27.12-9.25-23.47-11.54-47.69-7.66-72.54,2.48-15.9,1.82-16.93-13.34-23.44-4.1-1.76-7.07-.86-9.68,2.34-2.88,3.54-4.69,7.64-6.45,12.64m202.36,82.41c1.24-1.77,2.48-3.55,3.72-5.32,13.99-19.88,19.29-41.79,15.03-65.78-1.43-8.04-3.77-15.91-8.5-22.76-3.46-5.03-5.92-5.69-11.38-3.08-3.45,1.65-6.66,3.78-10.05,5.54-4.07,2.1-5.1,5.29-4.1,9.58,3.88,16.71,4.31,33.52,1.87,50.51-2.35,16.36-6.97,31.82-16.15,45.72-3.73,5.64-8.52,10.42-12.73,15.78,17.68-4.69,30.64-15.92,42.28-30.2m-241.82,1.24c16.56,11.88,34.14,21.62,54.66,26.6-.99-2.7-2.89-3.57-4.31-4.89-1.45-1.36-3.07-2.55-4.51-3.92-18.08-17.33-31.21-37.91-40.31-61.17-.77-1.98-1.17-4.23-3.24-5.46-10.71-6.4-21.27-13.06-32.5-18.54-4.15-2.02-6.24-.64-6.63,4.08-.33,3.98-.22,8,.79,11.89,5.52,21.37,18.07,37.87,36.05,51.41m325.47-66.6c-9.72,4.8-18.73,10.83-28.18,16.1-2.79,1.56-4.44,3.57-5.6,6.58-8.91,23.14-21.77,43.72-39.66,61.07-2.89,2.8-6.6,4.83-9.41,9.11,9.12-1.71,16.76-4.88,24.22-8.43,20.2-9.61,38.82-21.44,52.22-39.89,8.63-11.88,15.07-24.76,14.84-39.97-.09-6.27-1.89-7.29-8.43-4.58Z"/>
  <path class="cls-1" d="m58.25,659.04c-15.62,2.9-29.98,1.84-42.12-9.14-7.59-6.86-11.85-15.75-13.71-25.54-2.76-14.46-4.13-29.28,1.32-43.3,9.9-25.5,28.72-40.15,56.21-42.96,11.99-1.23,23.57.47,34.27,6.24,10.42,5.62,15.77,14.54,15.79,26.43.03,26.99,0,53.97-.07,80.96-.02,6.87-.21,6.98-7.03,7-6.33.02-12.66-.07-18.99.06-3.15.06-4.32-1.02-4.39-4.35-.68-29.48-.37-58.96-.37-88.44,0-14.71-11.55-21.67-24.71-14.78-6.13,3.21-10.41,8.29-13.73,14.16-5.73,10.15-9.22,21.03-9.44,32.77-.14,7.49-.07,14.99.08,22.48.36,18.41,13.83,31.87,32.39,32.54,1.63.06,3.33-.41,5.27.71-2.7,3.47-6.68,3.96-10.74,5.16Z"/>
  <path class="cls-1" d="m469.02,540.16c3.99-.02,7.52.24,10.98-.12,4.03-.43,5.2,1.04,5.17,5-.15,21.65-.06,43.31-.06,64.97,0,3.83,0,7.66,0,11.49-.05,19.19-6.94,29.76-25.25,35.4-20.39,6.28-41.03,6.33-61.05-2.13-13.31-5.62-20.14-15.62-19.92-30.41.25-16.99-.08-33.98.12-50.97.11-9.03.64-17.96-12.2-19.38,3.26-4.09,7.18-5.32,10.42-7.45,2.78-1.82,5.81-3.25,8.71-4.89,10.91-6.16,22.95.63,23.28,13.42.29,11.15.08,22.32.09,33.48,0,13.33,0,26.65,0,39.98,0,13.55,5.98,20.25,19.48,21.5,6.1.56,11.98-.59,17.36-3.57,5.72-3.18,8.56-8.12,8.55-14.73-.03-28.65.09-57.3-.1-85.96-.03-4.28.85-6.23,5.44-5.69,2.79.33,5.66.07,8.98.07Z"/>
  <path class="cls-1" d="m333.23,658.75c-4.91.16-4.47-3.01-4.47-5.86-.02-27-.02-54-.04-81-.01-17.14-9.78-25.48-26.84-22.84-3.47.54-6.78,1.67-9.97,3.17-5.84,2.74-8.68,6.89-8.62,13.73.26,28.66.1,57.33.08,86,0,6.79-.03,6.79-7.01,6.8-6.17,0-12.34-.08-18.5.07-3.26.08-4.27-1.18-4.26-4.43.08-32.17.04-64.33-.06-96.5,0-2.95.77-4.61,3.89-5.21,8.75-1.67,16.72-5.6,24.8-9.1,18.02-7.81,36.22-7.78,54.5-1.4,15.12,5.28,22.5,15.85,22.54,31.74.06,26.17-.12,52.33.1,78.5.05,5.2-1.75,6.7-6.67,6.43-6.31-.34-12.66-.09-19.47-.1Z"/>
  <path class="cls-1" d="m202.89,621.48c-.02-16.82.16-33.15-.11-49.47-.26-15.76-8.1-23.44-23.67-25.42-12.98-1.65-25.52-.08-38.07,2.72-2.06.46-4.14.83-6.31,1.26-.37-2.54,1.53-2.66,2.68-3.2,11.87-5.61,24.37-8.56,37.5-9.33,10.39-.61,20.53-.06,30.5,3.1,17.79,5.64,27.93,19.38,27.94,38.08,0,24.48-.09,48.97.07,73.45.03,4.37-.98,6.22-5.8,6.16-19.32-.23-38.64.1-57.96-.11-22.92-.25-40.13-14.43-44.49-36.23-3.51-17.54,5.09-34.63,22.56-45.19,3.69-2.23,7.42-3.33,11.78-3.21,8.79.24,17.59.07,26.54.07-.36,2.94-2.64,2.83-4.1,3.55-8.65,4.3-16.3,9.76-21.37,18.21-10.95,18.27-2.84,40.21,17.79,48.01,6.43,2.43,13.13,3.47,20.06,3.37,3.57-.05,4.64-1.55,4.57-4.85-.14-6.83-.08-13.66-.1-20.99Z"/>
  <path class="cls-1" d="m604.32,600.4c-.52,27.73-16.17,50.5-39.46,57.9-12.21,3.88-24.73,2.76-37.17,2.02-8.64-.52-17.19-2.08-25.23-5.6-1.67-.73-3.7-1.17-3.72-3.49-.06-7.75-.02-15.5-.02-23.17,2.69-.43,3.67,1.16,4.93,2.11,7.49,5.65,15.39,10.48,24.44,13.31,21.2,6.62,39.42-3.92,43.29-25.79,2.48-13.99,2.55-28.2.41-42.29-2.16-14.22-10.64-22.94-24.4-26.58-14.54-3.85-29.04-2.47-43.49.68-1.3.28-2.58.66-3.88.92-.27.05-.6-.19-.9-.3-.42-1.07.32-1.51,1.06-1.87,21.56-10.45,44.04-14.14,67.34-7.48,21.49,6.15,31.81,22.22,35.84,43.21,1.01,5.28,1.02,10.59.97,16.41Z"/>
  <path class="cls-1" d="m509.74,506.08c-6.74,8.76-15.17,14.3-25.5,17.1-17.57,4.75-35.08,5.57-52.49-.55-5.4-1.9-10.19-4.9-14.04-9.22-2.61-2.93-2.42-5.22,1.51-6.81,6.94-2.81,13.87-5.62,20.71-8.66,3.12-1.39,4.45-.72,5.22,2.61,1.86,8.07,7.25,12.85,15.67,13.62,18.12,1.67,34.68-2.4,49.03-14.04.63-.51,1.2-1.19,2.55-.88.41,2.59-1.47,4.42-2.67,6.82Z"/>
  <path class="cls-1" d="m291.97,499.51c.02,2.81-.04,5.14.08,7.47.17,3.29-1.05,4.82-4.6,4.84-3.73.02-4.5-1.92-4.45-5.01.06-4.65.02-9.31.03-13.96,0-2.15-.44-3.69-3-4.38-2.75-.74-4.08.52-5.3,2.45-4.02,6.41-1.2,16.02,5.61,19.21-3.98,3.25-10.45,1.97-13.35-2.63-3.75-5.94-2.9-16.24,1.74-21.56,1.47-1.68,3.22-3.21,5.37-3.38,4.24-.33,8.54-.46,12.76-.09,2.63.23,4.21,2.2,4.59,5.12.49,3.81.62,7.61.53,11.92Z"/>
  <path class="cls-1" d="m305.57,485.9c-3.79,2.68-2.38,4.6.53,6.07,2.67,1.34,5.67,2.09,8.18,3.65,5.69,3.55,5.61,10.2.04,13.94-5.61,3.77-13.31,3.84-18.56.14,1.13-1.69,2.71-.75,4.07-.64,2.4.19,4.69-.13,6.77-1.3,3.74-2.1,3.88-5.56.16-7.72-2.43-1.41-5.19-2.24-7.74-3.46-2.66-1.27-5.03-3.06-4.83-6.34.18-3.03,1.99-5.31,4.79-6.51,5.51-2.36,10.97-2.69,17.41.73-4.15,1.79-7.61-.78-10.83,1.45Z"/>
  <path class="cls-1" d="m330.7,497.54q-.02-10.99-10.69-12.51c3.98-3.41,8.04-3.25,11.91-2.66,3.48.53,6.07,2.69,6.69,6.48,1.08,6.62.49,13.28.45,19.93-.02,2.75-2.16,2.91-4.29,2.95-2.28.04-3.98-.5-4-3.22-.02-3.5-.04-6.99-.07-10.97Z"/>
</svg>