<?xml version="1.0" encoding="UTF-8"?>
<svg id="Layer_1" data-name="Layer 1" xmlns="http://www.w3.org/2000/svg" viewBox="0 0 419.94 129.05">
  <defs>
    <style>
      .cls-1 {
        fill: #ffffff;
      }
    </style>
  </defs>
  <g>
    <path class="cls-1" d="m228.14,32.21c-12.3,3-24.1,11.7-29,21.2-5.9,11.7-6.9,28.8-2.2,40.9,3.3,8.4,13.2,18.3,21.5,21.3,13.5,5,29.3,5,47.8.1l3.7-1v-45.9h-32v15h13v18.8l-3.9.7c-10.7,1.8-22.5-2.9-27.9-10.9-4-6.1-5.7-15.3-4.3-22.9,1.9-10.3,5.8-15.5,15-20.2,5.1-2.6,18.1-3.1,25.9-1.1,3.5.9,6.7,1.6,7.2,1.6,1.4,0,4.4-14,3.2-15.2-3.4-3.4-27.3-4.9-38-2.4Z"/>
    <path class="cls-1" d="m128.94,75.31v43.5h55v-16l-17.7-.2-17.8-.3-.3-10.3-.3-10.2h32.1v-16h-32v-18h34v-16h-53v43.5Z"/>
    <path class="cls-1" d="m304.54,36.51c-4.2,13.1-24.6,80.4-24.6,81.3,0,.6,3.8,1,9.9,1,8.6,0,10-.2,10.5-1.8.2-.9,1.7-6.1,3.2-11.5l2.7-9.7h24.6l3.1,10.2c1.7,5.7,3.3,10.9,3.5,11.5.3.9,3.4,1.3,11,1.3,5.8,0,10.5-.1,10.5-.3,0-.1-6-19.6-13.4-43.2l-13.3-43-13.1-.3-13-.3-1.6,4.8Zm19.9,31.9c1.9,6.7,3.5,12.5,3.5,12.8s-4.3.6-9.6.6c-7.3,0-9.5-.3-9.2-1.3.4-1,3.4-12.4,8-29.7l1.1-4.5,1.4,5c.7,2.7,2.9,10.5,4.8,17.1Z"/>
    <path class="cls-1" d="m352.94,39.81v8h24v71h19V47.81h24v-16h-67v8Z"/>
  </g>
  <path class="cls-1" d="m48.83,1.21c-.84.92-1.61,1.4-2.29,1.4s-1.32.4-1.89,1.2c-.48.64-1.2,1.2-1.61,1.2s-.88.2-1,.4c-.16.28-.96.32-2.01.2-1.57-.24-1.77-.2-2.57.92-.64.92-.84,1.81-.84,3.81,0,2.29-.12,2.73-1.2,3.93-.64.76-1.2,1.49-1.2,1.61s.44.8,1,1.57c.64.88,1,1.89,1,2.81,0,1.69,2.33,5.06,3.89,5.66.6.24.96.8,1.16,1.85.12.84.72,2.13,1.28,2.89l1,1.32-.88,1.53c-.44.84-.84,2.01-.84,2.61,0,1.24-.64,2.53-1.69,3.41-.4.32-.84,1.28-1,2.13-.24,1.69.68,3.41,3.53,6.46,2.05,2.25,3.17,4.98,3.17,7.71,0,1.53.28,2.77.96,4.09.64,1.28,1.04,2.97,1.24,5.1.24,3.09.2,3.29-1,5.62-.72,1.32-1.81,2.93-2.45,3.61-1.2,1.28-2.77,5.58-2.77,7.71,0,.84-.44,1.81-1.4,2.93-.76.92-1.4,1.97-1.4,2.33,0,.4-.28,1.97-.64,3.53-.96,4.05-.2,6.06,1.89,4.98.6-.36.92-.2,1.65.64.52.56,1.69,1.57,2.61,2.25.96.64,2.01,1.73,2.37,2.45s1.2,1.89,1.81,2.61c.64.72,1.16,1.57,1.16,1.89,0,.28.76,1.28,1.73,2.21,1.4,1.36,1.89,1.61,2.89,1.4.76-.16,1.85.12,3.21.76,1.08.52,2.49,1.16,3.05,1.36.76.32,1.12.8,1.32,1.81.16.76.52,1.61.84,1.89.52.44,2.57.32,5.34-.24.88-.16,2.49-2.29,2.49-3.25,0-.24-.84-1.04-1.89-1.77-1.08-.68-2.17-1.65-2.49-2.09-1.44-2.05-2.05-2.37-3.89-2.09-2.25.32-2.97-.12-4.66-2.65-2.13-3.33-2.37-3.85-2.61-6.02-.16-1.24-.6-2.49-1.12-3.13-1.24-1.49-1.69-2.41-2.01-4.38-.32-2.01-1.2-2.65-3.17-2.25-1.16.2-1.44.08-1.85-.64-.8-1.53-.64-5.62.36-7.83.52-1.12,1.36-3.33,1.89-4.98.56-1.65,1.61-4.29,2.37-5.94,1.28-2.81,1.4-3.29,1.53-7.87l.12-4.86,1.32-.56c1.49-.6,4.25-.32,4.74.44.16.28.24,1.61.16,2.93-.04,1.49.08,2.81.4,3.25.4.68-.16,2.41-3.97,12.16-2.45,6.26-4.42,11.44-4.33,11.52s2.85-5.18,6.22-11.68c5.02-9.79,6.26-11.84,7.06-12.04s1.61.24,4.17,2.21c1.77,1.32,3.57,3.05,4.05,3.85,1.2,2.09,1.85,1.53,1.69-1.53-.12-1.89-.4-2.97-1.12-4.05-1.36-2.13-2.25-4.98-1.97-6.3.12-.6.92-1.81,1.81-2.65.84-.84,1.77-2.01,2.01-2.65.76-1.85,3.33-2.45,9.51-2.25,2.81.08,5.54.28,6.02.44.68.24,1.16,0,2.37-1.04,1.49-1.36,1.49-1.4,1.81-5.74l.36-4.38-3.41-3.37-3.41-3.41v-3.29c0-2.81-.12-3.41-.8-4.01-.48-.4-1.2-1.32-1.65-2.05s-1.12-1.44-1.57-1.57c-.4-.12-1.12-.84-1.57-1.61-.76-1.28-.96-1.4-2.81-1.4-1.4,0-2.61.32-4.25,1.2-2.13,1.12-3.41,1.49-3.41,1,0-.12.8-1.85,1.81-3.81s1.81-3.77,1.81-4.01-1.2-.4-2.93-.4h-2.93l-1.73,4.01c-1.53,3.49-2.01,4.21-3.93,5.82-2.29,1.89-4.09,2.45-3.49,1.08.16-.36.32-1.4.36-2.29,0-.88.28-2.05.56-2.53.32-.64.4-1.61.24-2.89-.16-1.2-.08-2.49.24-3.33.56-1.61.24-3.33-.76-3.85-.44-.24-1.44-.24-2.65,0-2.53.48-3.37-.08-2.45-1.53.88-1.32.6-2.89-.6-3.77-.56-.4-2.13-.8-3.61-.92-1.74-.19-3.02.2-3.85,1.16h0Zm7.18.08c.76.48,1,1.93.4,2.85-.32.52-.52,1.32-.44,1.81.12.8.32.88,3.13.88h3.01l-.08,1.81c-.32,5.5-.48,7.71-.88,10.24-.24,1.53-.36,3.05-.24,3.29.32.88,1.65.56,3.53-.88l1.85-1.4-2.01,4.5c-3.21,7.14-3.21,6.38-.04,6.26l2.69-.12,2.65-5.46c2.49-5.06,2.77-5.46,3.97-5.7.68-.16,1.77-.64,2.37-1.08,2.01-1.4,6.46-1.97,6.46-.8,0,.2,1.36,1.77,3.05,3.49l3.01,3.13-.2,2.01c-.12,1.08-.08,2.65.12,3.45.28,1.24,1.77,3.41,3.05,4.42.24.16,1.08.92,1.93,1.65l1.49,1.32-.28,4.17c-.2,3.61-.36,4.29-1.24,5.34-.88,1-1.2,1.16-2.25.92-.68-.16-3.21-.36-5.66-.44-5.82-.24-9.23.56-10.2,2.41-.36.64-1.32,1.89-2.13,2.73-2.01,2.05-2.45,3.81-1.65,6.26.36,1.04,1.04,2.41,1.53,3.09.6.8.96,1.97,1.08,3.53l.2,2.33-1.12-1.32c-1.65-2.05-7.1-6.06-7.79-5.78-.32.12-.6.12-.6-.04,0-.12,1.53-3.21,3.41-6.82s3.41-6.66,3.41-6.74c0-.12-2.69-.2-6.02-.2s-6.02-.08-6.02-.2.36-.92.8-1.81.8-1.77.8-2.01-1-.4-2.37-.4h-2.37l-1.44,3.41c-.8,1.85-1.57,3.65-1.69,4.01-.2.52.52.6,5.62.6,4.42,0,5.86.12,5.82.48-.04,1.08-3.81,9.99-4.17,9.95-.24,0-.36-1.2-.28-3.01.16-2.93.12-3.01-.92-3.41-1.57-.6-4.09-.48-5.42.2-.68.36-1.2.76-1.2.92-.04.16-.12,2.45-.24,5.1-.16,4.46-.28,5.02-1.53,7.63-.76,1.53-1.73,3.97-2.17,5.42-.48,1.44-1.32,3.77-1.93,5.22-.92,2.25-1.04,2.93-.8,5.26.36,3.85.4,3.97,2.61,3.97,2.09,0,2.85.52,2.85,1.85,0,1.12.92,3.29,1.93,4.58.44.56,1,2.09,1.24,3.37.28,1.61,1,3.21,2.21,5.02,2.33,3.57,2.73,3.85,5.26,3.73,2.09-.08,2.17-.04,3.61,1.69.8.96,2.05,2.09,2.81,2.45,1.57.72,1.73,1.36.76,2.81-.44.64-1.04,1-1.73,1-.56,0-1.65.16-2.37.36-1.49.44-2.49-.24-2.49-1.73,0-1.04-.96-2.01-2.41-2.45-.56-.16-1.81-.72-2.77-1.24-1.24-.68-2.13-.92-2.93-.76-.88.2-1.36,0-2.53-1.12-.76-.76-1.4-1.57-1.4-1.81,0-.2-.6-1.12-1.28-2.01-.72-.88-1.65-2.13-2.01-2.81s-1.57-1.89-2.69-2.73c-1.16-.8-2.25-1.81-2.49-2.25-.36-.64-.68-.76-1.81-.52-1.2.2-1.4.12-1.73-.72-.28-.64-.2-1.65.16-2.93.28-1.08.64-2.65.8-3.49.12-.84.6-1.89,1-2.29,1.08-1.08,2.09-3.21,1.85-3.85-.12-.32.04-1.24.32-2.09.32-.8.68-1.97.8-2.57.16-.6.8-1.65,1.44-2.33.68-.68,1.77-2.33,2.41-3.61,1.04-2.05,1.2-2.81,1.2-5.66,0-2.69-.2-3.69-1.16-5.9-.8-1.89-1.08-3.09-.96-4.01.32-2.05-1.24-5.62-3.73-8.47-3.69-4.25-3.93-5.46-1.61-7.79.64-.64,1.04-1.49,1.04-2.17,0-.6.44-2.05.96-3.21l1-2.09-1.2-1.73c-.64-.96-1.16-2.21-1.16-2.81,0-1.16-.92-2.33-1.81-2.33-.32,0-.84-.48-1.16-1.12-.32-.6-.92-1.44-1.4-1.85-.64-.6-.8-1.08-.6-2.05.16-1,0-1.53-.8-2.49-1.28-1.53-1.28-1.65-.04-2.93.84-.88,1.04-1.53,1.12-3.85.08-1.53.4-3.17.72-3.69.48-.76.8-.88,2.21-.64,1.04.16,1.77.08,1.93-.2.16-.24.6-.44,1-.44s1.28-.64,2.01-1.4c.72-.8,1.65-1.4,2.17-1.4,1.12,0,1.65-.36,2.25-1.53.48-.92.64-.96,3.37-.68,1.61.16,3.05.36,3.21.48h0Z"/>
  <path class="cls-1" d="m69.66,31.8c-.36.12-.52,1.28-.52,3.77,0,1.97-.16,3.57-.32,3.57-.84,0-1.28-1.16-1.28-3.53s-.08-2.53-.6-2.09c-.4.36-.6,1.24-.6,2.89,0,2.61-.52,2.93-1.61,1-.52-.96-.52-1.16.16-2.33.52-.88.6-1.36.32-1.65-.6-.6-1.85.4-1.32,1.04.24.28.16.8-.16,1.44-.8,1.4-.72,2.13.24,3.37.68.88.96.96,1.65.6.56-.32,1.08-.32,1.73-.04.68.32,1.16.24,2.13-.4l1.28-.8v-3.57c0-1.97-.12-3.57-.28-3.53-.2,0-.56.12-.8.24h0Z"/>
  <path class="cls-1" d="m53.21,33.56c-.36.36-.32.6.12,1.04.36.36.56,1.44.56,2.97,0,2.29.04,2.37.84,1.97.72-.4.8-.76.68-2.85-.08-1.58.25-2.37,1-2.37s1.11.94,1.08,2.81c0,1.53.16,2.81.32,2.81.88,0,1.28-1.16,1.28-3.89v-2.93h-2.73c-1.49,0-2.93.2-3.17.44Z"/>
  <path class="cls-1" d="m75.48,34c-1,1.57-1.16,3.01-.56,4.54.68,1.61,1.2,1.77,1.89.52l.48-.88.76.96c.6.76.92.88,1.44.52.52-.32.72-1.12.8-3.49.08-1.69-.04-3.05-.24-3.05-.76,0-1.28,1.08-1.28,2.69,0,1.4-.12,1.65-.64,1.44-.4-.16-.8.04-1.08.48-.36.68-.44.64-.92-.24-.72-1.32-.72-2.93,0-2.65.32.12.8-.04,1.08-.36.4-.52.4-.68-.08-1-.84-.52-1-.44-1.65.52h0Z"/>
  <path class="cls-1" d="m109.42,95.73c0,.31.77.98,1.74,1.53.94.52,1.74,1.05,1.74,1.15s-.38.38-.84.59c-.91.42-1.57,0-1.64-.98,0-.35-.07-.38-.21-.1-.07.24-.49.45-.87.45-.56,0-.63-.1-.31-.49.49-.56-.17-1.18-.66-.7s.45,2.06,1.22,2.06c.38,0,.91.28,1.15.59.98,1.36,2.93.1,2.61-1.67-.17-1.01-.7-1.46-3.66-2.86-.17-.07-.28.1-.28.42h0Z"/>
  <path class="cls-1" d="m4.32,90.92c-.16.24-1.28.92-2.53,1.57-1.97,1-2.13,1.16-1.36,1.4.6.2,1.49-.04,2.77-.72,1-.6,1.93-.96,2.05-.88.44.48-.44,1.49-2.01,2.29-2.17,1.08-2.21,1.12-1.53,1.57.6.36,5.22-1.73,5.22-2.41,0-.2-.32-1-.68-1.81-.64-1.4-1.44-1.81-1.93-1h0Z"/>
  <path class="cls-1" d="m6.93,95.17c0,.12.16.52.36.92.32.6.04.92-1.81,2.05-1.81,1.08-2.09,1.4-1.61,1.69s1.32-.04,3.05-1.08c1.32-.8,2.41-1.57,2.41-1.65,0-.56-1.36-2.17-1.85-2.17-.32,0-.56.12-.56.24h0Z"/>
  <path class="cls-1" d="m106.21,100.3c-.49,1.12.31,2.4,1.99,3.1,1.43.63,1.53.91.35.91-.49,0-1.29-.38-1.78-.87-.91-.91-2.06-1.18-1.78-.45.07.24.31.45.52.45.24,0,.8.42,1.29.94,1.18,1.29,2.96,1.36,2.96.17,0-.87-1.15-2.34-1.85-2.34-.73,0-1.39-.59-1.12-1.01.24-.42.98-.1,3.42,1.53.91.59.94.59.94-.03,0-.42-.77-1.15-2.02-1.99-1.12-.7-2.16-1.29-2.3-1.29-.1,0-.38.38-.63.87h0Z"/>
  <path class="cls-1" d="m9.13,100.11c-.04.96-.32,1.93-.8,2.41-.96,1.08-1.97,1.12-1.69.04.16-.6,0-.8-.56-.8-1.16,0-.96,1.44.2,1.77,1.36.32,2.97-.36,3.49-1.53.4-.84.6-.92,1.44-.6.96.35,1.06-.07.28-1.24-1.4-2.13-2.37-2.13-2.37-.04h0Z"/>
  <path class="cls-1" d="m100.65,100.15c-.12.44-.44.8-.64.8s-.36.36-.36.8-.16.8-.4.8c-.56,0-.48,1.12.12,1.32.36.12.28.36-.2.96-1.36,1.53-.44,4.13,1.4,4.13.36,0,1.04.36,1.53.84l.84.84-.28-.96c-.16-.48-.64-1.24-1.08-1.65-.8-.64-1.36-3.09-.76-3.09.16,0,1,.72,1.85,1.61,1.65,1.69,2.21,1.97,2.21,1.08,0-.64-3.65-4.29-4.33-4.29-.6,0-.6-.36.04-1.73.52-1.12,1.49-1.49,1.49-.52,0,.68,4.05,3.85,4.94,3.85.4,0,.68-.28.68-.6s-.2-.6-.44-.6c-.68,0-4.78-3.33-4.78-3.89,0-.84-1.53-.6-1.81.28h0Zm-.72,7.06c-.36.36-1.12-.24-.84-.72.16-.24.4-.24.68.04.24.24.32.52.16.68h0Z"/>
  <path class="cls-1" d="m13.19,100.71c.12.32.48.68.8.8.76.28.72,1.04-.08,1.04-.96,0-4.94,3.29-4.98,4.05,0,.36.28.76.6.92.36.12.6,0,.6-.32,0-.56,4.21-4.25,4.86-4.25s.36-1.2-.44-2.01c-.92-.92-1.69-1.04-1.36-.24Z"/>
  <path class="cls-1" d="m14.15,106.01c-.32.32-1,.92-1.49,1.28s-1,1.16-1.16,1.77c-.2.96-.12,1.12.56,1.12.52,0,.88.36,1.04,1,.2.76.52,1,1.36,1,1.44,0,6.22-4.62,5.22-5.02-.44-.16-1.32.48-2.73,1.97-1.16,1.24-2.29,2.25-2.45,2.25-.8,0-.24-1.08,1.32-2.69,1.36-1.36,1.53-1.73.92-1.73-.44,0-1.49.68-2.33,1.49l-1.57,1.53.16-1.2c.08-.88.44-1.36,1.4-1.81.72-.32,1.32-.84,1.32-1.12,0-.64-.84-.56-1.61.16Z"/>
  <path class="cls-1" d="m95.55,108.22c-1.28.72-.92,2.65.8,4.17.96.92,1.28,1.4.84,1.4-1,0-2.77-1.57-2.77-2.45,0-.48-.28-.76-.8-.76-.96,0-1.08.72-.2,1.08.36.12.88.8,1.2,1.57.56,1.4,2.33,2.21,3.09,1.44.68-.68-.08-2.81-1.36-3.73-.88-.64-1.08-.96-.72-1.32.36-.32.88.04,2.17,1.53,1.12,1.24,1.85,1.81,2.01,1.49.36-.52.12-.92-1.73-3.17-1.57-1.85-1.53-1.85-2.53-1.24h0Z"/>
  <path class="cls-1" d="m22.98,108.98c-.52.96-.24,1.61.72,1.61.48,0,.52-.12.16-.48-.32-.32-.32-.6-.04-.96.28-.32.28-.56,0-.72-.24-.16-.6.12-.84.56Z"/>
  <path class="cls-1" d="m24.87,109.83c-.12.52-.04.76.24.64.6-.2.88-1.49.36-1.49-.2,0-.48.36-.6.84Z"/>
  <path class="cls-1" d="m19.77,110.71c0,.28-.52.84-1.2,1.2-.96.6-1.2,1-1.2,2.13,0,.92.2,1.36.6,1.36.32,0,.76.36,1,.8.28.52.84.8,1.53.8.88,0,1.49-.52,3.21-2.81,1.77-2.37,1.97-2.81,1.28-2.81-.48,0-1.49.96-2.81,2.65-1.4,1.89-2.01,2.45-2.01,1.89,0-.44.64-1.65,1.4-2.69,1.28-1.65,1.36-1.85.64-1.85-.48,0-1.32.72-2.13,1.85-1.28,1.85-1.32,1.85-1.44.76-.16-1.12.84-2.61,1.81-2.61.28,0,.52-.28.52-.6s-.28-.6-.6-.6-.6.24-.6.52h0Z"/>
  <path class="cls-1" d="m90.98,112.35c-.16.44.2,1.36,1.08,2.65,1.53,2.25,2.09,2.61,2.77,1.77.32-.36.36-.56.08-.56-.24,0-1.16-1.04-2.05-2.29-1.28-1.81-1.69-2.13-1.89-1.57h0Z"/>
  <path class="cls-1" d="m25.39,114.2c0,.2.28.52.68.72.56.36.52.6-.6,2.45-1.49,2.37-1.49,2.45-.68,2.45.48,0,3.41-3.97,3.41-4.7,0-.44-1.36-1.28-2.09-1.32-.4,0-.72.16-.72.4Z"/>
  <path class="cls-1" d="m32.45,114.84c-.88.88-.8,1.49.12,1,.8-.44,1.44-1.65.84-1.65-.2,0-.64.28-.96.64Z"/>
  <path class="cls-1" d="m85.12,115.48c-1.81,1.04-2.01,2.09-.48,2.21.6,0,1.57.44,2.21.88,1.53,1.12,1.65.08.12-1.12-.88-.68-.96-.96-.56-1.44.92-1.08.2-1.36-1.28-.52h0Z"/>
  <path class="cls-1" d="m88.09,115.4c.08.32.4.6.72.6s.64-.28.72-.6c.08-.4-.2-.64-.72-.64s-.8.24-.72.64Z"/>
  <path class="cls-1" d="m81.06,116.29c-.08.28.36,1.73,1,3.21,1.32,3.17,1.32,3.13.4,3.13-1.08,0-2.09-1.28-2.09-2.69,0-.72-.24-1.32-.6-1.49-.4-.16-.6.04-.6.56,0,.44.2.8.4.8.24,0,.4.6.4,1.32,0,2.45,2.57,3.61,3.81,1.77.56-.88.52-1.16-.68-4.01-1.24-3.05-1.69-3.57-2.05-2.61h0Z"/>
  <path class="cls-1" d="m31.93,118.37c-.84,1.73-1.24,2.13-2.01,2.09-.72-.04-.92-.28-.92-1.04,0-1.36.52-2.09,1.28-1.81.36.16.76.08.92-.16.12-.24-.04-.56-.4-.68-1.4-.56-4.13,3.69-3.09,4.74.32.32.64.32,1.04-.04.52-.44.64-.36.88.52.44,1.89,1.24,1.28,3.13-2.45,1.1-2.22,1.38-3.33.84-3.33-.32,0-1.08.96-1.69,2.17h0Z"/>
  <path class="cls-1" d="m91.66,117.77c-.04.32-.32.44-.84.32-.88-.24-1.16.68-.36,1.16.6.36,1.73-.8,1.44-1.53-.2-.44-.24-.44-.24.04Z"/>
  <path class="cls-1" d="m71.75,118.21c-.36.56.16,2.09.64,1.81.48-.32.48-1.69,0-2.01-.2-.12-.48-.04-.64.2Z"/>
  <path class="cls-1" d="m34.74,118.5c-.72.24-.64.92.04.92,1,0,1.08.68.24,2.81-.64,1.61-.72,2.41-.24,2.41.44,0,2.65-4.5,2.65-5.38,0-.32-2.21-.92-2.69-.76Z"/>
  <path class="cls-1" d="m52.48,120.1c.68.36,1.32.8,1.44,1.04.16.2.36.2.56-.08.44-.76-.6-1.65-1.97-1.65l-1.24.04,1.2.64h0Z"/>
  <path class="cls-1" d="m76.17,119.82c-.12.2.04.8.36,1.28.88,1.24.8,1.93-.2,1.81-.48-.04-.96.16-1.04.4-.12.28.04.52.36.52.28,0,.96.36,1.53.8s1.12.8,1.24.8c.64,0,.68-1.32.08-3.09-.88-2.69-1.69-3.57-2.33-2.53h0Z"/>
  <path class="cls-1" d="m38.48,120.98c-.44.48-.6,1.08-.48,1.57.16.52.04.88-.36,1.04-.88.32-.76,1.16.32,2.17.8.76,1.12.84,2.17.48,1-.36,1.28-.8,1.85-2.73.36-1.24.56-2.33.52-2.41-.4-.36-1.4.52-1.57,1.44-.12.6-.44,1.61-.68,2.29l-.48,1.2-.76-.96c-.68-.84-.72-1.04-.2-1.61.36-.4.52-1.04.4-1.53-.16-.56-.04-.84.32-.8.68.12.92-.68.2-.84-.28-.04-.84.24-1.24.68h0Z"/>
  <path class="cls-1" d="m50.48,120.62c-.12.2.04.52.4.64.88.36,1.16-.04.44-.6-.4-.32-.64-.36-.84-.04Z"/>
  <path class="cls-1" d="m86,121.26c0,.4.28.56.88.48,1.28-.2,1.4-1.12.16-1.12-.68,0-1.04.2-1.04.64h0Z"/>
  <path class="cls-1" d="m70.71,121.71c-.12,1.04.16,3.21.52,3.61.72.88.16,1.36-.8.68-.72-.52-.88-.96-.8-2.09.08-.84-.04-1.49-.28-1.49-.4,0-.48,2.93-.08,3.97.12.32.6.8,1.04,1.04.76.36.92.28,1.53-.96.6-1.32.6-1.44-.04-2.45-.76-1.2-.6-1.81.32-1.04.32.28.68,1.2.84,2.09.32,1.81.84,2.33,1.2,1.2.28-.92-.08-2.73-.84-3.97-.56-.84-2.53-1.28-2.61-.6h0Z"/>
  <path class="cls-1" d="m44.09,122.71c-.92,1.4-1.12,2.85-.64,4.13.4,1.04.52,1.12.84.48.52-.92,1.04-.88,1.36.12.48,1.57,1.61.24,2.13-2.45.24-1.4.36-2.61.28-2.69-.36-.36-1.4.8-1.4,1.53,0,1.24-.44,1.97-1.04,1.73-.32-.12-.56,0-.56.28,0,.24-.16.32-.4.2-.2-.12-.4-.96-.4-1.85,0-1.28.12-1.57.64-1.49.4.08.76-.12.84-.4.32-.84-1.04-.52-1.65.4h0Z"/>
  <path class="cls-1" d="m49.91,122.79c-.48.56-.4.64.36.64h.84l-.8,1.04c-1,1.24-1.08,2.49-.28,3.61.48.6.68.68,1.08.24.4-.36.4-.6.04-.96-.56-.56-.64-3.29-.08-2.93.2.12.68,1.2,1.04,2.41.6,1.81.8,2.09,1.36,1.81.48-.28.76-1.12.96-3.05.16-1.49.24-2.73.16-2.77-.08-.08-1.04-.24-2.17-.4-1.61-.2-2.13-.12-2.53.36h0Zm3.57,1.65c0,.84-.68,1.08-.96.36-.4-1-.28-1.36.36-1.12.32.16.6.48.6.76Z"/>
  <path class="cls-1" d="m66.09,122.83c-.4,1,.24,5.06.84,5.3.8.28,1.65-.28,1.04-.68-.28-.16-.6-1.28-.72-2.57-.24-2.33-.72-3.21-1.16-2.05h0Z"/>
  <path class="cls-1" d="m57.14,123.67c-1,1.28-1,1.36-.28,2.37.37.51.86.51,1.44,0,.48-.44.76-1.08.68-1.49-.24-.88.72-.96,1.08-.08.12.36.24,1.53.24,2.65,0,1.81.08,1.97.64,1.49.48-.4.6-1.04.48-2.85-.2-2.61-.76-3.53-1.69-2.77-.4.32-.64.36-.84.04-.4-.64-.88-.48-1.77.64h0Zm1.04.96c-.04.44-.16.8-.32.8-.4,0-.8-1.2-.52-1.65.36-.6.92-.04.84.84Z"/>
  <path class="cls-1" d="m63.4,122.91c-.36.32-.28,3.21.08,4.54.16.56.6,1.08,1,1.12.6.12.68,0,.48-.56-.2-.44-.44-1.73-.6-2.85-.32-2.21-.52-2.69-.96-2.25h0Z"/>
  <path class="cls-1" d="m56.86,127.57c-.28.8.12,1.49.84,1.49.92,0,1.04-.64.2-1.4-.72-.64-.8-.64-1.04-.08Z"/>
</svg>