<?xml version="1.0" encoding="utf-8"?>
<svg version="1.1" id="Layer_1" xmlns="http://www.w3.org/2000/svg" xmlns:xlink="http://www.w3.org/1999/xlink" x="0px" y="0px"
	 viewBox="0 0 2500 296.81" style="enable-background:new 0 0 2500 296.81;" xml:space="preserve">
<style type="text/css">
	.st0{fill-rule:evenodd;clip-rule:evenodd;fill:#1f2937;}
</style>
<path class="st0" d="M1198.07,129.06V47.23h25.68c36.15,0,75.74,1.3,75.74,38.35c0,39.21-38.2,43.47-83.34,43.47h-18.08
	L1198.07,129.06L1198.07,129.06z M1198.07,173.82h33.33l100.11,120.53h104.87l-122.3-130.76c25.71-8.11,79.21-23.86,79.21-78.86
	c0-80.13-108.39-82.28-161.89-82.28h-112.51c-11.84,0-14.63,1.3-14.63,8.99v283.08c0,0,2.79-0.08,14.63-0.08h64.6l14.58,0.08
	L1198.07,173.82L1198.07,173.82z M1922.42,256.93c-52.11,0-74.32-41.8-74.32-108.3c0-66.44,22.22-108.65,74.32-108.65
	s74.34,41.75,74.34,108.65C1996.76,215.13,1974.52,256.93,1922.42,256.93z M2095.42,148.63c0-103.1-66.02-153.41-173.02-153.41
	s-173.02,49.88-173.02,153.41c0,103.17,65.3,153.03,173.02,153.03C2030.09,301.66,2095.42,251.82,2095.42,148.63L2095.42,148.63z
	 M892.45,164.87h131.44v-46.03H892.45V48.52h146.64l19.96-46.08H812.04c-9.62,0.1-12.83,1.3-13.38,6.74v285.18l257.05,0.08
	l0.01-8.96v-28.14l0.05-8.94H892.45V164.87z M2448.65,2.45h-50.74l-14.59-0.05c0,0,1.78,176.31,1.78,189.94L2228.4,8
	c-4.18-4.66-5.55-5.55-15.98-5.55h-57l-1.62,0.05c-9.04,0.08-12.26,1.22-12.92,6.28v285.74c0,0,2.76-0.08,14.54-0.08h50.76
	c11.78,0,14.59,0.08,14.59,0.08V132.05c0-19.61-0.61-32.58-0.61-38.12c0,0,160.2,187.37,166.66,194.52c6.41,7.17,15.98,6,15.98,6
	h45.85l14.59,0.18V2.41L2448.65,2.45z M130.57,164.87h131.38v-46.03H130.57V48.52h146.61l19.96-46.08H50.26
	c-10.47,0.1-13.29,1.49-13.49,8.26v283.66l257.05,0.08v-37.11l0.09-8.94H130.57V164.87z M542.23,184.05L430.64,10.31
	c-4.15-4.68-5.55-5.53-15.97-5.53h-56.98L343.1,4.86v291.95c0,0,2.78-0.1,14.59-0.1h50.72c11.82,0,14.57,0.1,14.57,0.1V134.36
	c0-19.64-0.54-27.3-0.54-32.85c0,0,110.09,176.29,120.98,188.67h0.6c10.99-12.49,115.37-188.67,115.37-188.67
	c0,5.55-0.6,13.23-0.6,32.85v162.45c0,0,2.79-0.1,14.59-0.1h50.72c11.83,0,14.6,0.1,14.6,0.1V4.86l-14.6-0.08h-56.96
	c-10.44,0-11.79,0.83-15.97,5.53L545.24,184.05H542.23z M1671.88,137.09c-57.83-27.69-136.61-30.19-136.61-62.57
	c0-25.56,25.64-33.25,55.86-33.25c47.29,0,88.05,18.74,92.01,18.74c2.61,0,5.24-1.7,7.22-4.25l4.46-5.77l23.5-29.95
	c0-0.03,0.03-0.03,0.03-0.03l-0.66-0.27c-6.58-3.07-13.34-5.76-20.23-8.05c-23.44-7.83-66.65-16.45-108.95-16.45
	c-76.22,0-144.55,25.59-144.55,86.96c0,35.37,16.16,57.73,51,71.39c67.03,26.42,134.3,24.93,134.3,62.85
	c0,26.42-16.42,39.21-53.24,39.21c-56.51,0-105.15-18.74-109.05-18.74c-2.63,0-5.93,1.72-7.25,4.25l-7.2,13.37l-12.62,23.36
	l10.31,3.9c20.95,8.29,75.69,19.88,128.43,19.88c82.81,0,143.47-27.13,141.93-89.93C1719.82,179.37,1705.39,153.27,1671.88,137.09z"
	/>
</svg>
