<?xml version="1.0" encoding="utf-8"?>
<svg version="1.1" id="svg4342" xmlns="http://www.w3.org/2000/svg" xmlns:xlink="http://www.w3.org/1999/xlink" x="0px" y="0px" viewBox="0 0 238.85 87.78"
	 style="enable-background:new 0 0 238.85 87.78;" xml:space="preserve">
<style type="text/css">
	.st0{fill:#1f2937;}
</style>
<g id="layer1" transform="translate(-163.5782,-582.91297)">
	<g id="g4918" transform="matrix(2.1112175,0,0,2.1112175,-181.77096,-769.66582)">
		<path id="path50" class="st0" d="M218.21,650.68c-4.57-5.56-13.52-10.02-23.51-10.02c-6.28,0-12.14,1.76-17.13,4.81l2.12,2.93
			c4.39-2.63,9.53-4.14,15.02-4.14c7.73,0,14.75,2.99,18.52,6.41H218.21"/>
		<path id="path52" class="st0" d="M232.59,671.88c3.86,3.65,11.01,6.76,18.88,6.76c5.7,0,11.01-1.63,15.5-4.44l1.97,3.01
			c-5.07,3.18-11.05,5.03-17.48,5.03c-10.12,0-19.18-4.57-23.81-10.36L232.59,671.88"/>
		<path id="path54" class="st0" d="M167.43,657.1v2.48h4.23v3.26h-4.23v5.82h-3.85v-14.82h8.51v3.26H167.43"/>
		<path id="path56" class="st0" d="M177.43,665.39h4.62v3.26h-8.47v-14.82h3.85V665.39"/>
		<path id="path58" class="st0" d="M197.78,660.97c0,4.8-3.44,8.18-8.2,8.18c-4.76,0-8.2-3.38-8.2-8.18c0-4.48,3.93-7.63,8.2-7.63
			C193.85,653.34,197.78,656.49,197.78,660.97z M185.4,660.99c0,2.55,1.89,4.42,4.19,4.42c2.3,0,4.19-1.87,4.19-4.42
			c0-2.04-1.89-3.91-4.19-3.91C187.29,657.08,185.4,658.94,185.4,660.99"/>
		<path id="path60" class="st0" d="M203.64,663.41h0.04l3.11-9.57h3.07l2.91,9.57h0.04l2.79-9.57h4.01l-4.74,14.82h-3.93l-2.6-8.59
			h-0.04l-2.91,8.59h-3.91l-4.42-14.82h4.01L203.64,663.41"/>
		<path id="path62" class="st0" d="M227.74,657.65c-0.71-0.59-1.61-0.98-2.56-0.98c-0.71,0-1.65,0.41-1.65,1.24
			c0,0.86,1.04,1.2,1.71,1.42l0.98,0.29c2.06,0.61,3.66,1.65,3.66,4.05c0,1.48-0.35,2.99-1.53,3.99c-1.16,0.98-2.71,1.4-4.21,1.4
			c-1.87,0-3.7-0.63-5.21-1.69l1.65-3.11c0.96,0.84,2.1,1.53,3.42,1.53c0.9,0,1.87-0.45,1.87-1.49c0-1.08-1.51-1.46-2.34-1.69
			c-2.42-0.69-4.01-1.32-4.01-4.19c0-3.01,2.14-4.97,5.11-4.97c1.49,0,3.32,0.47,4.64,1.22L227.74,657.65"/>
		<path id="path64" class="st0" d="M235.13,657.1v2.48h4.34v3.26h-4.34v2.56h4.58v3.26h-8.43v-14.82h8.43v3.26L235.13,657.1"/>
		<path id="path66" class="st0" d="M254.04,668.65h-4.8l-3.64-5.7h-0.04v5.7h-3.85v-14.82h5.76c2.93,0,5.15,1.4,5.15,4.56
			c0,2.05-1.14,3.81-3.24,4.19L254.04,668.65L254.04,668.65z M245.57,660.48h0.37c1.26,0,2.67-0.24,2.67-1.85
			c0-1.61-1.42-1.85-2.67-1.85h-0.37V660.48"/>
		<path id="path68" class="st0" d="M259.9,662.84l3.6-9h4.19l-6.33,14.82h-2.99l-6.23-14.82h4.19L259.9,662.84"/>
		<path id="path70" class="st0" d="M272.13,657.1v2.48h4.35v3.26h-4.35v2.56h4.58v3.26h-8.43v-14.82h8.43v3.26L272.13,657.1"/>
		<path id="path72" class="st0" d="M270.45,673.34c0-0.61,0.46-1.07,1.05-1.07c0.59,0,1.05,0.46,1.05,1.07
			c0,0.62-0.46,1.08-1.05,1.08C270.92,674.42,270.45,673.96,270.45,673.34z M271.51,674.64c0.7,0,1.31-0.55,1.31-1.3
			c0-0.74-0.6-1.29-1.31-1.29c-0.71,0-1.31,0.55-1.31,1.29C270.19,674.09,270.8,674.64,271.51,674.64z M271.23,673.44h0.26
			l0.39,0.65h0.25l-0.42-0.66c0.22-0.03,0.39-0.14,0.39-0.41c0-0.29-0.17-0.42-0.53-0.42h-0.57v1.49h0.23V673.44z M271.23,673.25
			v-0.46h0.31c0.16,0,0.33,0.04,0.33,0.22c0,0.23-0.17,0.24-0.36,0.24L271.23,673.25"/>
	</g>
</g>
</svg>
