<?xml version="1.0" encoding="utf-8"?>
<!-- Generator: Adobe Illustrator 27.5.0, SVG Export Plug-In . SVG Version: 6.00 Build 0)  -->
<svg version="1.1" id="Layer_1" xmlns="http://www.w3.org/2000/svg" xmlns:xlink="http://www.w3.org/1999/xlink" x="0px" y="0px"
	 viewBox="0 0 1077.1 231.9" style="enable-background:new 0 0 1077.1 231.9;" xml:space="preserve">
<style type="text/css">
	.st0{fill:#ffffff;}
</style>
<g id="Group_112" transform="translate(-60.425 -52.992)">
	<path id="Path_92" class="st0" d="M439.5,161.6v42.5h68.1c-3.8,14.2-18.9,36.4-54.8,36.4c-45.3,0-65.6-35.9-65.6-71.4
		c0-48.9,32.8-70.8,65.3-70.8c45.4,0,56.8,38.4,56.8,42.5l46-16.4c-8.6-29-37.9-71.4-102.8-71.4C422.2,53,394,64,373,84.1
		c-22.5,21.5-34.4,50.9-34.4,85c0,34.2,11.7,63.5,33.8,84.8c20.8,20,49.3,31,80.3,31c33,0,59-10,77.1-29.7
		c32.4-35.3,27.9-93.6,27.9-93.6L439.5,161.6z M726.1,190.1c0,31.9-13,49.1-42.6,49.1c-29.8,0-42.6-17.2-42.6-49.1V56.2h-50.6
		l1,134.5c0.3,60.7,26.9,94.1,92.2,94.1c65.2,0,91.7-33.5,92.2-94.1l1-134.5h-50.6V190.1z M1137.5,99.6V56.2H988.4v225.3h50.6v-93.1
		h84.9v-39.7h-84.9V99.6L1137.5,99.6z M865.5,56.2h-50.6v225.3h142v-43.9h-91.3V56.2z"/>
	<path id="Path_93" class="st0" d="M216.9,131.1c-21.2,29.8-38.6,66.1-43.8,110.4c3.8,14.1,5.5,28.7,5,43.3
		c40.8,0.6,73.3-28,93.9-68.5c24.9-49,31.7-126.9,56.6-163.3C285.4,62.1,246.4,89.7,216.9,131.1z"/>
	<path id="Path_94" class="st0" d="M60.4,163.8c18.4,43.5,29.9,118.7,117.7,121C180,215.6,140.1,165.9,60.4,163.8z"/>
</g>
</svg>
