<svg version="1.1" id="Layer_1" xmlns="http://www.w3.org/2000/svg" xmlns:xlink="http://www.w3.org/1999/xlink" x="0px" y="0px" viewBox="0 0 102.1 141.7" style="enable-background:new 0 0 102.1 141.7;" xml:space="preserve">
 <style type="text/css">
  .st0{clip-path:url(#SVGID_2_);fill:#231F20;}
	.st1{clip-path:url(#SVGID_4_);fill:url(#SVGID_5_);}
	.st2{clip-path:url(#SVGID_7_);fill:url(#SVGID_8_);}
 </style>
 <g>
  <g>
   <defs>
    <rect id="SVGID_1_" width="102.1" height="141.7">
    </rect>
   </defs>
   <clipPath id="SVGID_2_">
    <use href="#SVGID_1_" style="overflow:visible;">
    </use>
   </clipPath>
   <path class="st0" d="M23.1,133.7c0,1.8,0,4.3-3.1,6c-2.6,1.5-6.5,2-10.4,2c-4.7,0-7.5-0.7-9.6-1.4V138c1.2,0.3,4.6,1.3,8.7,1.3
			c1.6,0,2.6-0.1,3.3-0.3c4.1-0.9,4.3-2.8,4.4-5.4v-16.2h6.6V133.7z">
   </path>
   <polygon class="st0" points="42.5,141.4 35.9,141.4 35.9,117.4 62.3,117.4 62.3,119.7 42.5,119.7 42.5,127.8 59.7,127.8 
			59.7,130.1 42.5,130.1 		">
   </polygon>
   <polygon class="st0" points="97,141.4 69.8,141.4 69.8,117.4 96.3,117.4 96.3,119.7 76.4,119.7 76.4,127.8 93.3,127.8 93.3,130.1 
			76.4,130.1 76.4,139 97,139 		">
   </polygon>
  </g>
  <g>
   <defs>
    <path id="SVGID_3_" d="M15.3,51c0-19.7,16-35.7,35.7-35.7s35.7,16,35.7,35.7c0,19.7-16,35.7-35.7,35.7S15.3,70.8,15.3,51 M0,51
				c0,28.2,22.9,51,51,51c28.2,0,51-22.9,51-51c0-28.2-22.9-51-51-51C22.9,0,0,22.9,0,51">
    </path>
   </defs>
   <clipPath id="SVGID_4_">
    <use xlink:href="#SVGID_3_" style="overflow:visible;">
    </use>
   </clipPath>
   <linearGradient id="SVGID_5_" gradientUnits="userSpaceOnUse" x1="-262.6437" y1="477.5825" x2="-260.659" y2="477.5825" gradientTransform="matrix(-36.4171 -36.4171 -36.4171 36.4171 7914.5825 -26869.7324)">
    <stop offset="0" style="stop-color:#005AA9">
    </stop>
    <stop offset="0.12" style="stop-color:#005AA9">
    </stop>
    <stop offset="0.82" style="stop-color:#00BCF1">
    </stop>
    <stop offset="1" style="stop-color:#00BCF1">
    </stop>
   </linearGradient>
   <polygon class="st1" points="51,153.1 -51,51 51,-51 153.1,51 		">
   </polygon>
  </g>
  <g>
   <defs>
    <path id="SVGID_6_" d="M9.8,45.6c0,19.7,16,35.7,35.7,35.7c19.7,0,35.7-16,35.7-35.7c0-19.7-16-35.7-35.7-35.7
				C25.8,9.9,9.8,25.9,9.8,45.6">
    </path>
   </defs>
   <clipPath id="SVGID_7_">
    <use xlink:href="#SVGID_6_" style="overflow:visible;">
    </use>
   </clipPath>
   <radialGradient id="SVGID_8_" cx="-256.4543" cy="460.4597" r="1.9847" gradientTransform="matrix(27.1303 0 0 -27.1303 6990.2651 12524.9951)" gradientUnits="userSpaceOnUse">
    <stop offset="0" style="stop-color:#FFFFFF">
    </stop>
    <stop offset="6.000000e-02" style="stop-color:#FFFFFF">
    </stop>
    <stop offset="0.2809" style="stop-color:#00A5E0">
    </stop>
    <stop offset="0.573" style="stop-color:#006BB5">
    </stop>
    <stop offset="0.85" style="stop-color:#17479D">
    </stop>
    <stop offset="1" style="stop-color:#17479D">
    </stop>
   </radialGradient>
   <rect x="9.8" y="9.9" class="st2" width="71.5" height="71.5">
   </rect>
  </g>
 </g>
</svg>