<?xml version="1.0" encoding="utf-8"?>
<svg version="1.1" id="Layer_1" xmlns="http://www.w3.org/2000/svg" xmlns:xlink="http://www.w3.org/1999/xlink" x="0px" y="0px"
	 viewBox="0 0 400 69" style="enable-background:new 0 0 400 69;" xml:space="preserve">
<style type="text/css">
	.st0{fill:#1f2937;}
</style>
<g transform="translate(0.000000,200.000000) scale(0.100000,-0.100000)">
	<path class="st0" d="M0,1655v-345h2000h2000v345v345H2000H0V1655z M550,1715v-165h135h135v-65v-65H535H250v230v230h150h150V1715z
		 M1470,1820v-60h-155h-155v-30v-30h155h155v-50v-50h-155h-155v-30v-30h155h155v-55v-55h-305H860v225v225h305h305V1820z M2210,1820
		v-60h-189c-155,0-191-3-201-15s-10-18,0-30s40-15,152-15c110,0,148-4,175-17c71-33,95-127,50-194c-42-62-51-64-367-64h-285l-3,58
		l-3,57h179c187,0,220,7,206,43c-5,15-23,17-148,17c-162,0-213,15-240,69c-26,49-21,114,11,152c48,56,60,58,376,59h287V1820z
		 M2890,1820v-60h-155h-155v-30v-30h155h155v-50v-50h-155h-155v-30v-30h155h155v-55v-55h-305h-305v225v225h305h305V1820z M3670,1861
		c97-51,96-191-2-246l-36-20l40-45c22-25,54-62,70-82l30-38h-165h-166l-67,85c-56,71-72,85-96,85h-28v-85v-85h-145h-145v225v225h338
		C3608,1880,3638,1878,3670,1861z"/>
	<path class="st0" d="M280,1655v-195h255h255v25v24l-137,3l-138,3l-3,168l-2,167H395H280V1655z"/>
	<path class="st0" d="M890,1655v-195h275h275v25v25h-155h-155v60v60h155c148,0,155,1,155,20s-7,20-155,20h-155v60v60h155h155v30v30
		h-275H890V1655z"/>
	<path class="st0" d="M1613,1835c-33-14-63-59-63-95c0-34,28-78,60-95c22-11,64-15,173-15c161,0,171-4,165-62c-5-51-29-58-215-58
		h-163v-23v-24l250-6c141-3,265-1,283,4c52,14,82,52,82,106c0,38-5,49-33,74l-32,29h-150c-137,0-152,2-170,20c-11,11-20,29-20,40
		s9,29,20,40c19,19,33,20,200,20h180v30v30h-267C1707,1849,1638,1846,1613,1835z"/>
	<path class="st0" d="M2310,1655v-195h275h275v25v25h-155h-155v60v60h155c148,0,155,1,155,20s-7,20-155,20h-155v60v60h155h155v30v30
		h-275h-275V1655z"/>
	<path class="st0" d="M2990,1655v-195h115h115v85v85h54h54l67-84l68-83l121-6c67-2,122-3,124-2s-29,40-69,86l-72,84l34,6
		c104,17,144,109,80,181l-29,33l-331,3l-331,3V1655z M3474,1789c36-29,36-80-1-109c-24-19-37-20-142-18l-116,3l-3,59
		c-2,32-1,65,2,72c4,11,32,14,119,14C3433,1810,3450,1807,3474,1789z"/>
	<path class="st0" d="M3240,1735v-45h96c107,0,134,9,134,45s-27,45-134,45h-96V1735z"/>
</g>
</svg>
