<?xml version="1.0" encoding="utf-8"?>
<!-- Generator: Adobe Illustrator 27.5.0, SVG Export Plug-In . SVG Version: 6.00 Build 0)  -->
<svg version="1.1" id="Layer_1" xmlns="http://www.w3.org/2000/svg" xmlns:xlink="http://www.w3.org/1999/xlink" x="0px" y="0px"
	 viewBox="0 0 702.1 371.4" style="enable-background:new 0 0 702.1 371.4;" xml:space="preserve">
<style type="text/css">
	.st0{fill:#ffffff;}
</style>
<path class="st0" d="M102.8,308.2c17.6,2.4,33.8-2.1,49.7-7.9c1.9-0.7,3.8-1.4,5.6-2c0.3-0.1,0.6,0.1,0.9,0.2
	c0.8,0.7,0.4,1.6,0.1,2.3c-11.5,23.9-26.7,44.5-49.6,58.7c-28.1,17.4-67.8,15.6-91.5-4.4C4.4,343.5-1.3,328,0.3,310.5
	c3.3-37.1,25.6-61.4,56.2-78.7c32-18.1,66.9-27.8,103.1-33.1c18.1-2.7,36.4-4,54.7-3.9c6.2,0.1,12.3,0.4,18.5,0.9
	c3,0.2,4.6-0.9,5.9-3.5c5.1-10.3,10.4-20.5,14.1-31.4c2.4-6.8-0.3-12.1-5.2-16.4c-8.4-7.4-18.6-10.1-29.4-11.1
	c-41.3-3.5-78.1,9.6-112.5,31c-16.6,10.3-31.8,22.6-45.2,36.8c-1.1,1.2-2.4,2.3-3.6,3.4c-0.2,0.2-0.6,0.1-0.9,0.2
	c-7-6.6-7.8-18-1.9-27.9c4.2-7,10.3-12.2,16.3-17.5c36.4-31.7,77.9-53.6,125.4-63c31.9-6.3,64.1-7.7,96.2-0.7
	c11.9,2.6,23.1,6.9,31.8,15.9c13.2,13.7,13.5,30.2,8.6,47.1c-4.7,16.2-13,31-19.6,46.5c-9.3,21.9-18.9,43.7-28.2,65.7
	c-4.1,9.7-4.8,19.7-0.5,29.6c1.3,3,0.5,4.4-2.5,5c-18.5,3.6-36.8,3.7-54.3-4.6c-17.5-8.4-23.8-25.9-15.9-43.6
	c3.6-8.1,7.4-16,11.2-24c0.8-1.7,1.6-3.3,1.5-5.3c-2.1-1.8-4.8-2.3-7.4-2.4c-37.1-0.8-72.6,5.5-105.7,22.9
	c-9.2,4.8-17.7,10.7-23.8,19.5C75.1,284.7,82.2,303.3,102.8,308.2L102.8,308.2z"/>
<path class="st0" d="M368.8,307.2c-12.5,0.8-23.4-2.2-32-10.9c-5.8-5.9-8.5-12.9-5.7-21.4c6.2-18.7,14.2-36.6,22-54.6
	c12.8-29.5,25.6-58.9,38.8-88.3c3.8-8.4,4.5-16.6,1.3-25.1c-1.5-4,0-4.9,3.6-5.3c9.3-1.1,18.6-1.3,27.9-1c8.2,0.2,15.8,2.9,22,8.4
	c7.2,6.4,9.4,14.5,6,23.6c-4.9,13.3-10,26.5-15.2,39.6c-4.6,11.6-9.4,23.1-14,34.8c-0.6,1.4-1.8,2.9-0.7,4.8c2.2,1,3.3-0.9,4.6-1.9
	c16.7-13.9,34.9-25,55.2-32.6c3.1-1.1,4.3-3.4,5.5-6c6.4-14.1,13.2-28,21.2-41.3c18.1-29.9,44.3-46.2,79.6-47c1.9-0.1,4-0.6,6.3,1.9
	c-24.9,17-37.2,42.9-50.2,68.9c3.7,1.6,6.8,1.2,9.6,0.7c7.5-1.3,15-0.4,22.4,0.9c22.2,3.9,35.2,26.1,29.6,49.5
	c-3.2,13.5-10.8,24.6-19,35.4c-13,17-27.8,32.5-46.1,43.8c-14.8,9.1-30.9,14.7-48.5,10.6c-23.3-5.4-31.6-22.5-30.8-43.3
	c0.5-11.7,3.2-23,6.9-34.1c0.5-1.5,1.3-3,0.9-4.8c-2.2-0.5-3.9,0.7-5.7,1.5c-31.9,14.2-54.8,37.8-70.9,68.4
	c-2.8,5.3-6,10.5-7.8,16.2c-2.2,6.7-6.8,8.4-12.8,8.8C371.6,307.2,370.4,307.2,368.8,307.2 M531.1,234.6c6.1-4.1,11.4-9.2,16.5-14.4
	c5.6-5.7,10.5-12,14.5-19c4-7.1,1.4-13.1-6.4-15.5c-2.8-0.8-5.6-0.6-8.4-0.5c-11.7,0.6-20.9,4.1-24.9,16.9c-2.8,8.9-6.2,17.5-7,26.9
	c-0.3,3.6-0.1,7.2,3,9.6c3.1,2.4,6-0.3,8.8-1.5C528.3,236.6,529.3,235.7,531.1,234.6L531.1,234.6z"/>
<path class="st0" d="M263.2,59.8c-22.4-1.5-44.3-1.6-66.3,0c-23.5,1.7-46.4,6.4-69.1,12.7c-1.6,0.4-3.3,0.6-4.9,0.6
	c-3.1,0-6.6,0.8-8.4-2.8c-1.7-3.4,0.2-6.2,1.9-8.8c7.3-11.1,17.9-18.7,28.7-25.9C172.5,17.5,202.6,6,235.1,2
	c21.8-2.7,43.9-3.8,65.2,3.6c26.1,9.2,44.5,26.8,55.6,52c3.1,7.1,4.6,14.6,2,22.4c-1.2,3.6-3.1,5.1-7.1,3.1
	C323.4,69.2,294,62.6,263.2,59.8 M225.6,33.8c24.7-1,49.2-0.2,73.4,5.8c-16.4-16.9-73.2-19.7-91.5-4.9
	C213.4,34.7,219,34.8,225.6,33.8L225.6,33.8z"/>
<path class="st0" d="M572.5,55.4c8.4-4.6,17.3-5.9,26.3-6.4c1.8-0.1,3.4-0.3,4.9-2c9.7-11,16.9-11.5,28.3-1.6
	c5.2-5.5,10.7-10.8,15-17.1c4.2-6.1,7.9-12.5,12.4-18.7c2,10.4,3.9,20.7,1.8,32c8.2-0.7,15-3.8,21.5-7.3c6.4-3.5,12.5-7.4,18.7-11.2
	c1.4,2.4,0.6,4.3,0,6.2c-6.8,20.7-19.1,36.1-40.6,42.6c-4.3,1.3-5.1,3.2-3.6,7.2c2.4,6,2.9,12.1,2.3,18.6
	c-0.8,8.3,1.8,16.5,2.3,24.8c0.5,7.4,1.4,14.7,2.2,22c-2.8,0.6-4.2-0.9-5.4-2.1c-7.2-7.7-14.6-15.1-27.9-10.6
	c2.8-7,4.9-12.5,7.1-17.9c0.4-0.9,0.9-1.8,1.2-2.7c4-10.4,3.9-10.4-5.2-16.8c-9.1-6.3-16.2-14.1-18.3-25.7
	c-1.7-9.5-11.7-15.4-21.8-14.1c-8.8,1.2-17.5,2.5-25.5,6.7c-0.6,0.3-1.3,0.4-2.1-0.4C567.1,58,570.2,57.3,572.5,55.4L572.5,55.4z"/>
</svg>
