<?xml version="1.0" encoding="utf-8"?>
<!-- Generator: Adobe Illustrator 27.5.0, SVG Export Plug-In . SVG Version: 6.00 Build 0)  -->
<svg version="1.1" id="Layer_1" xmlns="http://www.w3.org/2000/svg" xmlns:xlink="http://www.w3.org/1999/xlink" x="0px" y="0px"
	 viewBox="0 0 353.7 397.1" style="enable-background:new 0 0 353.7 397.1;" xml:space="preserve">
<style type="text/css">
	.st0{fill:#ffffff;}
</style>
<path class="st0" d="M8.5,236.3v-165c0-35.2,23.3-63.4,57.9-69.9c4.4-0.8,8.9-1.3,13.3-1.3C143.4,0,207,0,270.7,0.1
	c39.4,0,70.9,31.5,70.9,70.8v192.5c0,38.3-31.1,70-69.4,70.1c-64.8,0.2-129.7,0.2-194.5,0c-38.4-0.1-69.2-31.6-69.2-70.1L8.5,236.3
	 M90.2,14.5h-11c-31.1,0-56.3,24.4-56.5,55.5c-0.3,64.5-0.3,129,0,193.4c0.1,31.8,25.2,55.8,57.1,55.8h190.4
	c31.6,0,56.8-23.9,57-55.5c0.4-64.3,0.4-128.6,0-192.9c-0.2-32.6-25.1-56.4-57.6-56.4C210.2,14.5,150.7,14.5,90.2,14.5L90.2,14.5z"
	/>
<path class="st0" d="M42.9,390.1c-0.7-6.2-1.3-12-2-17.8c-0.4-0.2-0.9-0.3-1.3-0.5c-4,7.8-8,15.6-12.5,24.4
	c-5.3-8.7-10.3-16.7-15.3-24.8c-1.6,8.1-5.7,15.7-3,24.2H0c1.2-2.7,2.9-5.5,3.5-8.5c1.8-9.8,3.2-19.7,4.9-29.6
	c0.3-1.6,0.9-3.1,2.2-4.9c6.8,8.7,11,18.9,17.2,29c4.1-7.6,7.7-14.6,11.6-21.5c1.3-2.4,3.2-4.4,4.9-6.6c1,2.6,2.4,5.2,2.8,7.9
	c1.6,9.2,2.8,18.4,4.4,27.6c0.4,2.3,2,4.3,3,6.4H41C41.6,393.9,42.2,392.2,42.9,390.1L42.9,390.1z"/>
<path class="st0" d="M125.8,394.8c1.4-2,3.6-3.7,3.6-5.6c0.3-9.3,0.4-18.7,0-28c-0.1-2.2-2.1-4.3-3.4-6.8c8.7,0.3,18.2-1.4,27.5,1.9
	c3.9,1.4,6.4,4.3,6.7,8.6c0.3,4.4-2.3,7.1-5.9,9.1c-1,0.6-2.1,1-3.8,1.7c4.5,6.6,9,13.1,13.3,19.4c-9.2,1.8-9.9,1.5-15.2-6.5
	c-2.7-4.1-5.4-8.2-8.3-12.7c-3,7.5-1.7,16.1,3.6,20C137.2,395.6,131.4,395.3,125.8,394.8 M145.8,374.1c4.8-3.3,6.7-9.9,3.4-14.2
	c-1.5-1.9-4.6-2.7-7.1-3.3c-0.7-0.2-2.9,1.9-2.9,3.1c-0.3,4.9-0.1,9.8-0.1,15.2C141.5,374.7,143.3,374.5,145.8,374.1L145.8,374.1z"
	/>
<path class="st0" d="M271.6,380.3c-1.3-11.2,2.1-19,9.9-23c9.1-4.8,20.8-3.9,28.3,2.3c10,8.3,9.1,25.7-1.7,33
	C293.8,402,276.5,396.4,271.6,380.3 M292.6,355.5c-4.2,0.7-6.8,3.3-8.3,7.1c-3.4,8.4-3.4,16.9-0.2,25.3c1.8,4.7,4.9,7.9,10.5,7.6
	c5.3-0.3,8-3.8,9.5-8.3c2.5-7.8,2.6-15.7-0.1-23.5C302.3,358.7,299.1,355.4,292.6,355.5z"/>
<path class="st0" d="M193.9,395.7h-8c5.5-2.1,5.8-5.6,5.7-9.4c-0.2-7.5-0.1-15,0-22.5c0.1-3.8,0.1-7.4-5.1-8.4
	c0.2-0.4,0.4-0.9,0.6-1.3c8.5,0.4,17,0.5,25.4,1.4c5.3,0.6,8.1,5,8.2,10.4c0.1,4.9-2.7,9-7.7,10.3c-3.8,1-7.8,1.1-12.3,1.6
	c1.5,5.8-3.2,12.9,4.9,17.9H193.9 M201.3,375c4,0.7,7.4-0.2,9.1-4.1c1.9-4.4,1.6-8.9-1.5-12.6c-1.1-1.3-4-1.9-5.7-1.5
	c-1.1,0.2-2.2,2.9-2.3,4.6C200.5,365.7,200.8,370,201.3,375z"/>
<path class="st0" d="M331.3,354.4h4.4c-5.1,2.5-4,7.1-4,11.2c0,7.3,0.2,14.7-0.1,22c-0.2,4.7,2.1,6,6.4,6.1
	c7.4,0.1,12.3-3.3,14.4-10.8c0.4,0.3,0.9,0.6,1.3,0.9c-0.6,3.8-1.2,7.7-1.9,11.8h-32.3c0.9-2.8,2.5-5.7,2.7-8.7c0.4-8,0.4-16,0-24
	c-0.1-2.7-1.8-5.3-2.9-8.4C322.2,354.4,326.5,354.4,331.3,354.4z"/>
<path class="st0" d="M238.7,373.4h14.5c-1.5-6.6,3.5-14-5.5-18.8h19.5c-1.7,1.6-3,2.9-4.9,4.6c-0.9,1.1-1.5,1.8-1.5,2.5
	c-0.1,9.5,0,19,0,28.5c0.2,0,0.3,0.1,0.5,0.1c0.3-1.3,0.7-2.6,1-3.9c1,3.1,2.1,6.2,3.1,9.2h-16.9c8.4-5,2.8-12.6,5.4-19.6
	c-5.4,0-9.8,0-14.7-0.4C238.7,374.6,238.7,374,238.7,373.4L238.7,373.4z"/>
<path class="st0" d="M65.5,386.2c0-7.8-0.1-15.1,0-22.4c0-3.8-0.3-7.3-4.8-8.8H78c-5.1,1.5-4.8,5.5-4.8,9.5c0.1,7.5,0.1,15,0,22.4
	c-0.1,3.9,0.4,7.3,5,8.6H60.4C65,394.1,65.8,390.7,65.5,386.2L65.5,386.2z"/>
<path class="st0" d="M107.7,356.3c-0.2,4.9-0.6,9.8-0.7,14.7c-0.1,5.6-0.3,11.3,0.1,16.9c0.2,2.6,1.9,5,2.9,7.4H91.9
	c6.4-1.6,6-5.4,6-9.2c-0.1-9.6,0-19.2,0.1-29.7C101.3,355.9,104.5,356.1,107.7,356.3L107.7,356.3z"/>
<path class="st0" d="M238.7,373.3v2.2c0,0.3-0.1,0.6-0.6,0.7c-0.4,0.8-0.3,1.4-0.3,2.1c0.1,0.4,0.1,0.9-0.2,1.9
	c-0.3,4.8-3,9.3,1.4,12.9c0,0-0.2,0.1-0.2,0.4c-0.1,0.9-0.1,1.4-0.1,1.9c-3.3,0.1-6.7,0.1-10.5-0.3c-0.5-0.9-0.5-1.4-0.5-1.8
	c0.3-3.3,0.9-6.5,1-9.8c0.2-7,0.1-14,0-21c0-1.8-0.7-3.5-0.9-5.8c3.9-1.2,7.9-3.4,11,0.7c0,0-0.1-0.1-0.4,0.1
	c-0.8,4.7-1.3,9.3-1.6,13.9C236.8,372,238,372.7,238.7,373.3C238.6,373.3,238.7,373.3,238.7,373.3L238.7,373.3z"/>
<path class="st0" d="M262.3,385.9c-0.4,1.8-0.8,3.1-1.1,4.4c-0.2,0-0.3-0.1-0.5-0.1v-28.5c0-0.7,0.6-1.4,1.3-2.2
	c0.4,1,0.4,2,0.1,3.7c-0.1,1.8,0,2.9,0.1,4.1C262.3,373.3,262.3,379.4,262.3,385.9z"/>
<path class="st0" d="M93.7,356.2c-5,1.4-7.5,4.9-9.2,9.8c0-3.3,0-6.6,0.5-10.4c1.9-0.7,3.3-0.9,4.8-1.1c1,0,2.1-0.1,3.5,0.2
	C93.7,355.5,93.7,355.9,93.7,356.2z"/>
<path class="st0" d="M110.7,354.5c1,0,2.1-0.1,3.8,0.2c2.3,0.4,4,0.6,5.6,0.7c0.1,2,0.1,3.9-0.2,6.4c-0.8,0.5-1.2,0.6-1.6,0.7
	c-2.7-2-5.3-4.1-8.2-6.5C110.2,355.3,110.5,354.9,110.7,354.5L110.7,354.5z"/>
<path class="st0" d="M238.4,372.9c-0.4-0.2-1.6-0.9-1.6-1.5c0.3-4.6,0.8-9.2,1.6-13.9C238.7,362.4,238.5,367.4,238.4,372.9z"/>
<path class="st0" d="M239.2,357.3c-3.5-4-7.4-1.7-11.6-0.9c-1.4-0.2-2.4-0.7-3.3-1.1c0-0.2,0.1-0.4,0.1-0.6h18.8
	C241.6,355.7,240.5,356.4,239.2,357.3z"/>
<path class="st0" d="M238.9,392.7c-4.3-3.1-1.6-7.7-1.3-12.1C238.1,384.2,238.4,388.2,238.9,392.7z"/>
<path class="st0" d="M110.3,354.4c0.2,0.5-0.1,0.9-0.4,1.5c-0.6,0.3-1,0.3-1.8,0.4c-3.5-0.2-6.7-0.4-10.2-0.2
	c-1.3,0.3-2.4,0.3-3.8,0.2c-0.4-0.4-0.4-0.8-0.4-1.5C99,354.4,104.4,354.4,110.3,354.4z"/>
<path class="st0" d="M239,395.5c-0.2-0.6-0.2-1.2-0.1-2.1c1.3,0.3,2.5,0.9,5,2.2C241.5,395.7,240.4,395.7,239,395.5z"/>
<path class="st0" d="M227.4,393.5c0.3,0.3,0.3,0.8,0.3,1.6c-1,0.5-2.1,0.6-3.1,0.7c-0.1-0.2-0.1-0.5-0.2-0.7
	C225.3,394.5,226.2,394.1,227.4,393.5z"/>
<path class="st0" d="M118.5,362.9c0.3-0.4,0.8-0.5,1.5-0.6c0.5,1.2,0.6,2.5,0.7,3.7c-0.4,0.1-0.7,0.2-1.1,0.3
	C119.3,365.2,118.9,364.2,118.5,362.9z"/>
<path class="st0" d="M120.1,355.1c-1.6,0.2-3.2,0.1-5.2-0.3C116.5,354.6,118.2,354.7,120.1,355.1z"/>
<path class="st0" d="M89.3,354.4c-1,0.3-2.5,0.6-4.3,0.8C86.1,355,87.5,354.6,89.3,354.4z"/>
<path class="st0" d="M262.4,366.9c-0.3-0.8-0.4-1.9-0.3-3.3C262.3,364.4,262.4,365.5,262.4,366.9z"/>
<path class="st0" d="M237.9,378.1c-0.2-0.4-0.2-1.1,0-1.8C238.1,376.7,238.1,377.3,237.9,378.1z"/>
<path class="st0" d="M150.6,127.7c3.5,17.8-1.4,34-7,50.2c-10.8,31.1-21.1,62.4-31.5,93.6c-0.8,2.4-1.3,4.1-4.5,4.1
	c-22.5-0.1-45-0.1-67.4-0.1c-0.6,0-1.3-0.2-2.6-0.4c25-77,49.9-153.7,75.2-231.7C130.6,69.9,144.9,96.5,150.6,127.7L150.6,127.7z"/>
<path class="st0" d="M263.6,124.4c16.3,50.4,32.6,100.3,48.9,150.7c-1.7,0.1-2.9,0.3-4.2,0.3c-21.5,0-43-0.1-64.4,0.1
	c-3.3,0-4.9-0.8-6.1-4.1c-11.2-33.8-22-67.7-34-101.2c-7.3-20.5-6.4-40.4-0.1-60.6c7.3-23.6,19-44.9,33.6-66.1
	C246.2,70.9,254.8,97.5,263.6,124.4L263.6,124.4z"/>
<path class="st0" d="M168.4,139c12-27.9,25.2-54.8,42.8-79.2c4.2-5.8,8.9-11.3,13.4-16.9c0.5,0.3,1,0.7,1.5,1
	c-0.8,1.5-1.6,3-2.5,4.4c-19.5,31.5-34.6,65-41.2,101.6c-3.8,21.1-6.1,42.5-7.4,63.8c-1.2,20.2-0.3,40.6-0.3,61.3h-52.1
	C134.9,228.7,149.6,183.4,168.4,139z"/>
</svg>
