<?xml version="1.0" encoding="utf-8"?>
<svg version="1.1" id="Layer_1" xmlns="http://www.w3.org/2000/svg" xmlns:xlink="http://www.w3.org/1999/xlink" x="0px" y="0px"
	 viewBox="0 0 283.46 35.21" style="enable-background:new 0 0 283.46 35.21;" xml:space="preserve">
<style type="text/css">
	.st0{fill:#6b7280;}
	.st1{fill:#9ca3af;}
	.st2{fill:#d1d5db;}
	.st3{fill:#4b5563;}
	.st4{fill:#f3f4f6;}
	.st5{fill:#1f2937;}
</style>
<polygon class="st0" points="17.6,10.56 35.21,35.21 35.21,21.13 "/>
<polygon class="st1" points="35.21,21.13 35.21,0 17.6,10.56 "/>
<polygon class="st2" points="35.21,0 25.15,0 17.6,10.56 "/>
<polygon class="st0" points="0,21.13 0,35.21 17.6,10.56 "/>
<polygon class="st3" points="17.6,10.56 0,35.21 35.21,35.21 "/>
<polygon class="st2" points="10.06,0 0,0 17.6,10.56 "/>
<polygon class="st4" points="25.15,0 10.06,0 17.6,10.56 "/>
<polygon class="st1" points="17.6,10.56 0,0 0,21.13 "/>
<path class="st5" d="M94.54,7.44c-1.28-0.81-3.19-1.14-6.62-1.14H77.59v22.58h5.07v-7.75h5.45c2.85,0,5.02-0.1,6.94-1.46
	c1.78-1.27,2.65-3.22,2.65-5.94C97.7,10.94,96.61,8.77,94.54,7.44 M82.66,10.66h5.2c3.09,0,4.24,0.83,4.24,3.07
	c0,2.09-1.26,3.07-3.96,3.07h-5.48C82.66,16.8,82.66,10.66,82.66,10.66z"/>
<path class="st5" d="M116.68,7.44c-1.28-0.81-3.2-1.14-6.62-1.14H99.72v22.58h5.07v-7.75h5.44c2.85,0,5.02-0.1,6.94-1.46
	c1.78-1.27,2.65-3.22,2.65-5.94C119.83,10.94,118.74,8.77,116.68,7.44 M104.79,10.66h5.2c3.09,0,4.24,0.83,4.24,3.07
	c0,2.09-1.26,3.07-3.96,3.07h-5.48C104.79,16.8,104.79,10.66,104.79,10.66z"/>
<path class="st5" d="M132.47,5.87c-7.57,0-11.26,3.76-11.26,11.51c0,8.17,3.58,11.97,11.26,11.97s11.26-3.73,11.26-11.75
	C143.73,9.59,140.15,5.87,132.47,5.87 M132.47,25.1c-3.98,0-5.75-2.38-5.75-7.7c0-4.93,1.88-7.33,5.75-7.33
	c3.95,0,5.79,2.39,5.79,7.51C138.25,22.72,136.41,25.1,132.47,25.1"/>
<path class="st5" d="M50.81,7.24c-0.37-0.56-1-0.93-1.72-0.93h-5.03v22.58h5.09V12.7l8.55,15.21c0.35,0.55,0.94,0.93,1.63,0.97h4.65
	V6.3h-5.06v15.35L50.81,7.24z"/>
<path class="st5" d="M153.22,7.24c-0.37-0.56-1-0.93-1.72-0.93h-5.03v22.58h5.09V12.7l8.55,15.21c0.35,0.55,0.94,0.93,1.63,0.97
	h4.65V6.3h-5.06v15.35L153.22,7.24z"/>
<path class="st5" d="M73.4,7.81c0-0.83-0.66-1.51-1.49-1.51h-3.8v22.58h5.29V7.81z"/>
<path class="st5" d="M191.6,15.56h-5.94c-1.84,0-2.73-0.72-2.73-2.2c0-1.89,1.01-2.7,3.38-2.7h11.49V6.3h-12.17
	c-5.52,0-7.98,2.16-7.98,7c0,4.54,2.34,6.56,7.58,6.56h5.26c2.29,0,3.1,0.62,3.1,2.36c0,1.69-0.89,2.3-3.41,2.3h-11.64v4.36h12.38
	c5.43,0,7.95-2.17,7.95-6.84C198.88,17.44,196.77,15.56,191.6,15.56"/>
<path class="st5" d="M228.36,28.88H241v-4.27h-11.5c-3.56,0-2.94-1.41-3.02-5.02H241v-4.27h-14.48c0.24-3.24-0.21-4.75,2.98-4.75
	H241V6.3h-12.52c-7.26,0-7.67,3.72-7.67,11.69c0,0-0.1,7.02,1.71,8.96C222.53,26.95,223.85,28.88,228.36,28.88"/>
<path class="st5" d="M250.67,28.88h12.64v-4.27H251.8c-3.56,0-2.94-1.41-3.02-5.02h14.52v-4.27h-14.48
	c0.24-3.24-0.21-4.75,2.98-4.75h11.51V6.3h-12.52c-7.26,0-7.66,3.72-7.66,11.69c0,0-0.1,7.02,1.71,8.96
	C244.84,26.95,246.15,28.88,250.67,28.88"/>
<path class="st5" d="M275.72,24.8c-1.84,0-3.17-0.23-4.14-1.38c-0.67-0.79-0.72-1.99-0.72-3.88V6.3h-5.07v13.39
	c0,3.01,0.33,4.98,2.06,6.81c2.08,2.21,4.4,2.38,7.46,2.38h8.15V24.8H275.72L275.72,24.8z"/>
<path class="st5" d="M201.38,6.33c-0.72,0.01-1.31,0.53-1.44,1.22v3.05h7.27v18.28h5.23V10.6h7.34V6.33H201.38z"/>
</svg>
