<?xml version="1.0" encoding="utf-8"?>
<svg version="1.1" id="Layer_1" xmlns="http://www.w3.org/2000/svg" xmlns:xlink="http://www.w3.org/1999/xlink" x="0px" y="0px"
	 viewBox="0 0 622 96" style="enable-background:new 0 0 622 96;" xml:space="preserve">
<style type="text/css">
	.st0{fill:#1f2937;}
</style>
<g transform="translate(0.000000,96.000000) scale(0.100000,-0.100000)">
	<path class="st0" d="M856,928c-10-29-56-239-56-253c0-24,24-18,197,50c90,36,175,65,189,65c13,0,81-32,151-72
		c156-87,187-108,176-119c-19-18-368-159-396-159c-21,0-120,53-329,175C555,751,481,790,454,790c-30,0-415-149-436-169
		c-4-3,68-48,161-99c119-65,178-92,202-92c19,0,108,29,198,65s170,65,177,65c10,0,13-7,9-22C728,380,650,37,650,30c0-6,52-10,126-10
		c141,0,179,11,219,64c22,29,31,54,55,152l10,41l173,6c196,6,295,28,386,86c100,65,161,186,161,322c0,86-23,137-82,179
		c-82,60-109,63-491,68C926,941,859,939,856,928z"/>
	<path class="st0" d="M1955,928c-8-24-205-886-205-898c0-9,36-11,133-8c128,3,135,4,170,31c21,16,46,45,57,66c10,21,58,206,105,412
		s88,382,91,392c5,16-8,17-171,17C2004,940,1958,937,1955,928z"/>
	<path class="st0" d="M2655,928c-16-6-41-19-55-28c-34-24-374-387-378-402c-2-12,223-410,263-466c15-21,21-22,187-22
		c147,0,169,2,164,15c-3,8-62,112-131,231s-125,221-125,227c0,7,100,112,222,234l223,223l-170-1C2761,939,2672,934,2655,928z"/>
	<path class="st0" d="M4566,923c-13-42-206-885-206-899s9-15,57-9c67,8,107,26,128,58c15,24,23,55,135,537c39,168,73,311,75,318
		c3,9-19,12-90,12C4585,940,4571,938,4566,923z"/>
	<path class="st0" d="M2993,678c3-18,27-174,53-345l48-313h93c105,0,148,13,181,55c12,15,77,118,144,229c66,110,133,213,147,229
		l25,27l239-2c268-3,266-3,253-71l-7-37h-180c-192,0-228-7-277-53c-35-33-49-65-71-164c-24-105-17-148,29-187c39-33,103-40,299-34
		c177,6,221,18,272,75c40,46,45,60,90,252c44,186,48,251,19,298c-41,67-42,68-375,71c-165,2-319,0-343-3c-69-10-109-55-233-266
		c-62-104-117-194-124-199c-14-12-11-27-51,268l-27,202h-105h-104L2993,678z M4130,293c0-32-22-98-38-115c-13-15-33-18-132-18
		c-90,0-120,3-129,14c-17,21-3,85,25,113c22,22,31,23,149,23C4117,310,4130,308,4130,293z"/>
	<path class="st0" d="M4764,693c3-10,26-155,51-323s48-315,50-327c5-22,10-23,101-23c149,0,151,2,325,290c68,113,134,215,146,228
		c29,29,118,33,109,4c-24-83-76-334-76-371c0-60,26-110,70-136c33-19,52-20,290-20h255l12,36c6,20,15,53,18,73l7,36h-219
		c-235,0-243,2-243,51c0,60-2,59,179,59c224,1,265,12,317,88c26,37,58,168,57,230c0,49-28,86-80,108c-41,18-685,20-748,3
		c-58-16-90-55-204-249c-146-247-133-228-142-205c-4,11-20,110-34,220s-28,210-31,223c-4,21-9,22-110,22C4768,710,4759,708,4764,693
		z M6009,546c13-16,5-71-15-103c-14-22-20-23-150-23h-136l6,23c3,12,6,29,6,37s9,30,20,48l20,32h119C5967,560,6000,556,6009,546z"/>
</g>
</svg>
