<?xml version="1.0" encoding="utf-8"?>
<svg version="1.1" id="Layer_1" xmlns="http://www.w3.org/2000/svg" xmlns:xlink="http://www.w3.org/1999/xlink" x="0px" y="0px"
	 viewBox="0 0 481 187" style="enable-background:new 0 0 481 187;" xml:space="preserve">
<style type="text/css">
	.st0{fill:#1f2937;}
</style>
<g transform="translate(0.000000,187.000000) scale(0.100000,-0.100000)">
	<path class="st0" d="M769,1645c-241-48-452-222-542-448C81,832,238,417,585,250c304-147,641-83,873,165c130,140,194,304,194,500
		c0,135-23,230-84,348c-50,97-158,215-251,276C1161,1640,950,1681,769,1645z M1065,1535c116-30,203-81,295-174
		c89-90,140-175,171-286c20-71,18-265-3-332c-36-113-80-185-168-273c-131-132-268-190-447-190c-350,0-632,281-635,632
		c0,112,14,172,68,286c76,159,207,270,389,328C821,1554,974,1558,1065,1535z"/>
	<path class="st0" d="M640,1226v-56h249c241,0,249-1,281-23c96-64,96-190,0-254c-31-21-44-23-186-23H830V685V500h50h50v129v128
		l113,5c104,4,118,7,168,34c177,99,176,349-1,448l-55,31l-257,3l-258,3V1226z"/>
	<path class="st0" d="M640,785V500h50h50v235v235h188c201,0,212,3,212,50c0,49-8,50-262,50H640V785z"/>
	<path class="st0" d="M2376,1170c-83-26-120-126-78-210c28-56,68-70,205-70c174,0,217,25,225,129c5,70-14,113-61,138
		C2630,1176,2425,1186,2376,1170z M2617,1115c26-6,53-52,53-89c0-14-11-38-24-53c-23-26-30-28-115-32c-105-4-134,2-161,29
		c-29,29-27,100,3,127c12,12,30,23,41,25C2438,1126,2589,1121,2617,1115z"/>
	<path class="st0" d="M1860,1030V889l33,3c28,3,33,7,37,38l5,35l120,1c66,1,132,6,148,12c58,24,73,125,26,168c-19,17-41,19-195,22
		l-174,3V1030z M2171,1110c22-12,26-59,7-78c-8-8-52-12-130-12h-118v50v50h111C2102,1120,2160,1115,2171,1110z"/>
	<path class="st0" d="M2741,1163c0-5,26-66,58-138l57-130l40-3l40-3l35,95c18,53,37,96,40,96s21-42,41-92l35-93l40-3
		c37-3,42,0,51,25c5,15,33,79,60,141l51,112h-35c-37,0-44-10-108-165c-20-48-23-45-67,78l-31,87h-37h-36l-35-100
		c-19-55-37-100-41-100c-3,0-25,45-49,100c-42,99-43,100-76,100C2755,1170,2740,1167,2741,1163z"/>
	<path class="st0" d="M3320,1030V890h195h195v30v31l-157-2l-158-1l-3,31l-3,31h150h151v25v25h-150h-150v30v30h160h160v25v25h-195
		h-195V1030z"/>
	<path class="st0" d="M3760,1030V890h185h185v30v30h-155h-155v110v110h-30h-30V1030z"/>
	<path class="st0" d="M4170,1030V890h185h185v30v30h-150h-150v110v110h-35h-35V1030z"/>
	<path class="st0" d="M1870,771c0-5,35-67,78-138l79-128h48h48l78,125c43,69,78,131,78,138c1,9-9,12-31,10c-30-3-39-13-95-103
		c-34-55-66-106-70-113c-5-9-31,24-78,100c-64,102-74,113-103,116C1884,780,1870,777,1870,771z"/>
	<path class="st0" d="M2368,763c-8-10-50-72-92-138l-76-120l32-3c25-3,37,2,53,22c20,25,24,26,133,26c108,0,112-1,128-25
		c12-19,25-25,50-25c19,0,34,3,34,6c0,4-39,67-86,140c-85,133-87,134-124,134C2397,780,2377,773,2368,763z M2459,664
		c18-30,31-57,28-60c-2-3-37-4-76-2l-71,3l36,58c19,31,39,57,42,57C2422,720,2440,695,2459,664z"/>
	<path class="st0" d="M2670,641V500h185h185v25v25h-155h-154l-3,113l-3,112l-27,3l-28,3V641z"/>
	<path class="st0" d="M2948,774c-3-3,31-65,76-139l81-134l46-1h46l82,134c44,73,81,136,81,140c0,11-59,6-71-6c-6-7-37-55-68-107
		s-61-96-66-98c-6-2-41,46-79,107c-60,96-71,110-95,110C2966,780,2951,777,2948,774z"/>
	<path class="st0" d="M3387,773c-4-3-7-66-7-140V500h195h195v25v25h-160h-160v30v30h150h150v25v25h-151h-150l3,31l3,31l158-1l157-2
		v31v30h-188C3478,780,3390,777,3387,773z"/>
	<path class="st0" d="M3881,770c-42-10-59-27-67-66c-4-24,0-37,19-60c25-29,25-29,169-34c130-5,143-7,146-24c6-30-16-36-135-36
		c-86,0-115,3-127,15c-8,8-28,15-45,15c-38,0-41-21-6-55c23-24,28-25,172-25c97,0,156,5,172,13c28,14,46,57,37,92
		c-11,43-52,55-184,55c-125,0-162,11-149,44c5,14,24,16,127,16c98,0,122-3,126-15c7-17,74-21,74-4c0,24-24,52-55,65
		C4118,781,3941,784,3881,770z"/>
</g>
</svg>
