<?xml version="1.0" encoding="UTF-8"?>
<svg id="Layer_1" data-name="Layer 1" xmlns="http://www.w3.org/2000/svg" viewBox="0 0 351.51 121.24">
  <defs>
    <style>
      .cls-1 {
        fill: #fff;
      }
    </style>
  </defs>
  <path class="cls-1" d="m233.04,107.82c-4.92-13.28-.81-25.28,3.9-37.12,4.27-10.71,10.95-19.74,20.68-26.76-5.52-2.13-9.57.29-12.32,3.7-5.86,7.28-13.33,7.9-21.8,7.59-12.98-.48-26.01.25-38.99-.22-14.88-.54-24.25,6.48-29.76,19.71-1.86,4.48-3.2,9.12-3.86,13.92-1.02,7.47,2.78,12.4,10.2,13.07,5.29.48,10.62.51,15.94.71,1.71.06,3.48-.07,4.21-1.96,1.54-3.99,3.37-7.9,3.77-12.7-5.04,0-9.82-.1-14.59.03-4.33.12-5.28-1.63-3.73-5.52,6.13-15.35.94-12.45,17.65-12.69,11.83-.17,23.66-.04,35.5-.03,8.5.01,9.6,1.53,6.93,9.38-3.33,9.78-6.59,19.57-9.94,29.34-3.64,10.62-6.81,12.91-17.87,12.92-19.33.02-38.66.01-58,.01-1.83,0-3.67.03-5.5-.09-13.56-.88-27.6-7.43-24.39-29,2.93-19.68,11.05-36.58,28.27-47.96,9.38-6.19,19.96-8.24,30.93-8.26,58.5-.11,116.99-.09,175.49-.09,6.25,0,6.69.51,4.62,6.15-5.86,15.95-1.18,12.78-18.33,13.06-10.33.17-20.67.18-31-.03-9.3-.18-16.43,3.67-21.76,11.02-5.01,6.91-7.55,14.85-8.38,23.24-.73,7.48,3.78,12.24,11.72,12.37,13.5.22,27,.11,40.5.15,6.33.02,6.52.29,4.57,6.11-4.01,11.99-5.72,13.26-18.2,13.27-15.83.02-31.66,0-47.5.03-3.84,0-7.64-.25-11.42-.99-7.59-1.46-13.79-4.82-17.56-12.36Z"/>
  <path class="cls-1" d="m36.09,2.69c-.04-1.12-.04-1.91-.04-2.69,4.21,6.13,6.31,12.95,7.64,20.06,2.63,14.12-3.43,25.26-12.16,35.47-2.59,3.03-5.21,6.08-8.07,8.85-13.99,13.51-11.18,45.4,16.89,51.4.98.21,1.93.5,2.9.77,1.55.44,2.12,1.56,1.87,3.05-.25,1.5-1.46,1.67-2.68,1.59-1.49-.1-2.99-.21-4.46-.49C4.88,114.49-9.8,82.39,6.99,53.12c5.53-9.63,13.57-17.25,20.39-25.84,2.92-3.67,5.5-7.53,7.58-11.71,2-4.01,2.82-8.17,1.13-12.88Z"/>
  <path class="cls-1" d="m56.65,120.24c-1.87.34-3.33.77-4.81.86-1.37.08-3.22.7-3.59-1.54-.36-2.2,1.15-2.86,2.93-3.24,1.14-.24,2.26-.55,3.39-.83,21.5-5.28,30.75-30.77,17.38-48.38-3.91-5.15-8.76-9.59-12.74-14.69-12.8-16.42-13.34-30.06-3.34-51.75.11-.24.53-.33.83-.49.22.2.67.45.63.57-2.75,9.55,1.14,17.24,6.87,24.35,6.36,7.9,13.26,15.41,19.14,23.65,7.98,11.19,12.1,23.69,8.96,37.65-4.27,19-16.71,29.6-35.65,33.82Z"/>
  <path class="cls-1" d="m74.61,74.94c6.24,16.72-3.38,32.69-16.32,38.08-14.58,6.07-31.17.08-38.29-14.12-5.3-10.56-4.73-21.29,2.41-30.64,8.39-10.98,19.61-19.9,24.04-34.16,3.89,9.53,9.45,17.47,15.93,24.79,4.39,4.96,9.74,9.16,12.24,16.05m-35.7-11.22c-11.16,4.76-16.19,12.86-15.3,24.67.93,12.37,13.24,21.78,26.29,20.09,12.17-1.57,21.76-13.97,19.86-25.67-2.43-14.96-14.7-22.86-30.86-19.1Z"/>
</svg>