<?xml version="1.0" encoding="utf-8"?>
<svg version="1.1" id="svg991" xmlns="http://www.w3.org/2000/svg" xmlns:xlink="http://www.w3.org/1999/xlink" x="0px" y="0px" viewBox="0 0 146.48 43.28"
	 style="enable-background:new 0 0 146.48 43.28;" xml:space="preserve">
<style type="text/css">
	.st0{fill:#1f2937;}
	.st1{fill-rule:evenodd;clip-rule:evenodd;fill:#1f2937;}
</style>
<g id="layer1" transform="translate(7.9071068,-345.57009)">
	<g id="g1072" transform="translate(0.13229176,-0.1322871)">
		<path id="path993" class="st0" d="M-7.54,354.99h8.9v4.1c1.4-3.6,3.9-4.7,8.2-4.7v7.4h-2.6
			c-6,0-5.7,6.7-5.7,11.7v2.4v12h-8.8V354.99z"/>
		<path id="path995" class="st0" d="M84.96,354.99h8.9v4.1c1.4-3.6,3.9-4.7,8.2-4.7v7.4h-2.6
			c-6,0-5.7,6.7-5.7,11.7v2.4v12h-8.9v-32.9L84.96,354.99z"/>
		<path id="path997" class="st1" d="M133.56,347.79v1.7h0.5c0.2,0,0.4,0,0.6-0.1s0.3-0.1,0.4-0.3
			c0.1-0.1,0.2-0.3,0.2-0.5c0-0.3-0.1-0.4-0.2-0.6c-0.1-0.1-0.3-0.2-0.4-0.2c-0.2,0-0.4,0-0.6,0L133.56,347.79z M133.06,352.09v-4.8
			h1.2c0.4,0,0.8,0.1,1,0.3c0.2,0.2,0.4,0.5,0.4,0.9c0,0.3-0.1,0.6-0.3,0.7c-0.2,0.2-0.4,0.3-0.7,0.3l0,0c0.2,0,0.3,0.1,0.4,0.2
			c0.1,0.1,0.2,0.2,0.2,0.4l0.8,1.8h-0.5l-0.7-1.6c-0.1-0.2-0.2-0.3-0.3-0.4c-0.1-0.1-0.2-0.1-0.3-0.2c-0.1,0-0.2,0-0.4,0h-0.4v2.2
			h-0.4L133.06,352.09z"/>
		<path id="path999" class="st0" d="M133.56,347.79v1.7h0.5c0.2,0,0.4,0,0.6-0.1s0.3-0.1,0.4-0.3
			c0.1-0.1,0.2-0.3,0.2-0.5c0-0.3-0.1-0.4-0.2-0.6c-0.1-0.1-0.3-0.2-0.4-0.2c-0.2,0-0.4,0-0.6,0L133.56,347.79z M133.06,352.09v-4.8
			h1.2c0.4,0,0.8,0.1,1,0.3c0.2,0.2,0.4,0.5,0.4,0.9c0,0.3-0.1,0.6-0.3,0.7c-0.2,0.2-0.4,0.3-0.7,0.3l0,0c0.2,0,0.3,0.1,0.4,0.2
			c0.1,0.1,0.2,0.2,0.2,0.4l0.8,1.8h-0.5l-0.7-1.6c-0.1-0.2-0.2-0.3-0.3-0.4c-0.1-0.1-0.2-0.1-0.3-0.2c-0.1,0-0.2,0-0.4,0h-0.4v2.2
			h-0.4L133.06,352.09z"/>
		<circle id="circle1001" class="st0" cx="134.36" cy="349.79" r="3.3"/>
		<rect id="rect1005" x="104.26" y="354.99" class="st0" width="8.9" height="32.9"/>
		<polygon id="polygon1007" class="st0" points="119.96,387.89 113.36,371.39 119.96,354.99 128.36,354.99 122.96,368.19 
			134.16,368.19 134.16,371.39 134.16,374.69 122.96,374.69 128.36,387.89 		"/>
		<path id="path1011" class="st0" d="M37.26,354.99h4.4v-5.2h8.8v5.1h5.2v6.1h-5.2v18.5
			c0.1,1.7,1.2,3.1,5.3,2c0.1,3.2,0,6.1,0,6.1c-9.9,1.4-13.9,0.7-14.1-8h0.1h-0.1v-18.5h-4.4V354.99z"/>
		<path id="path1013" class="st0" d="M22.96,354.69L22.96,354.69c-12.6,0.3-12.6,6.7-12.5,17.1
			c-0.1,9.4,0,16.6,12.4,16.7h0.2c12.4-0.1,12.5-7.2,12.4-16.7C35.46,361.39,35.46,354.99,22.96,354.69z M22.96,382.29L22.96,382.29
			L22.96,382.29L22.96,382.29L22.96,382.29c-3.3,0-3.1-1.7-3.3-10.6c0.1-9.4,0-11.1,3.3-11.2l0,0l0,0l0,0c3.3,0.1,3.2,1.8,3.3,11.2
			C26.06,380.59,26.26,382.29,22.96,382.29z"/>
		<path id="path1015" class="st0" d="M69.86,354.69L69.86,354.69c-12.6,0.3-12.6,6.7-12.5,17.1
			c-0.1,9.4,0,16.6,12.4,16.7h0.2c12.4-0.1,12.5-7.2,12.4-16.7C82.36,361.39,82.36,354.99,69.86,354.69L69.86,354.69z M69.86,382.29
			L69.86,382.29L69.86,382.29L69.86,382.29L69.86,382.29c-3.3,0-3.1-1.7-3.3-10.6c0.1-9.4,0-11.1,3.3-11.2l0,0l0,0l0,0
			c3.3,0.1,3.2,1.8,3.3,11.2C72.96,380.59,73.16,382.29,69.86,382.29z"/>
	</g>
</g>
</svg>
