<?xml version="1.0" encoding="UTF-8"?>
<svg id="Layer_1" data-name="Layer 1" xmlns="http://www.w3.org/2000/svg" viewBox="0 0 533 196">
  <defs>
    <style>
      .cls-1 {
        fill: #fcfcfc;
      }
    </style>
  </defs>
  <path class="cls-1" d="m44,22.1C22.8,34.2,5.5,44.2,5.4,44.3s3.9,11.1,8.9,24.4,9.2,24.1,9.2,24c.8-1,58.4-90.5,58.9-91.5.4-.6.6-1.2.4-1.2s-17.6,10-38.8,22.1Z"/>
  <path class="cls-1" d="m96.6,1.2c.6,1,58.2,90.5,58.9,91.5.1.2,3.2-7.9,7-18,3.7-10,7.8-20.9,9.1-24.3l2.3-6.1-35.7-20.4C95.6-.5,95.6-.6,96.6,1.2Z"/>
  <path class="cls-1" d="m203,98v98h6V0h-6v98Z"/>
  <path class="cls-1" d="m57.8,50l-31.7,49,31,47.2c17.1,26,31.4,47.7,31.9,48.1.4.5,15-20.8,32.3-47.2l31.7-48.1-31.2-48.3C104.7,24.2,90.4,2.2,90.1,1.8c-.4-.4-14.9,21.3-32.3,48.2Zm40.5,9.6c10.4,2.4,16.6,5.4,22.4,11.1,7.6,7.4,9.3,11.6,10.4,24.7.4,6.1.9,11.8,1,12.6s.1,2.6.1,3.9c-.2,2-.5,2.2-1.4,1.3-.7-.7-1.5-5.2-1.8-10.5l-.6-9.2-1.3,4.5c-.8,2.5-1.3,7.3-1.2,10.7,0,3.4-.4,6.5-.9,6.8-.6.3-1,1.1-1,1.8,0,.6.7.2,1.5-.9,1.5-1.8,1.5-1.6.8,2.6-.4,2.5-.7,6.1-.6,8.1.1,4.5-2.1,5.9-8.7,5.6l-4.5-.2.3-7.7q.3-7.6-4.1-14l-4.3-6.3-6-.3c-3.2-.1-7.3-.6-9.1-1.1-2.9-.8-3.3-.7-4.1,1.7-2.3,6.3-2.4,6.7-.7,4.2,1.5-2.5,1.6-2.4,1.3,2.2-.3,4.1,0,4.8,1.9,5.7,1.3.6,2.3,1.5,2.3,2.1,0,2-2.1,5.1-3,4.5-.6-.4-.7.1-.3,1.1.5,1.4.2,1.6-2,1.2-3.4-.7-3.5,0-.1,1.2,1.9.7,2.5,1.6,2.2,3.3-.3,2-.9,2.2-6,2.4l-5.8.1v-5.9c0-3.8.4-5.8,1-5.4.6.3,1,.4,1,.1s-1.3-1.2-2.9-2.1c-3.9-2-4.4-3.9-3.2-13.5,1-7.6.9-8.4-1-11.2-1.8-2.4-1.9-3.1-.8-4.6,1.3-1.6,1.2-1.6-.6-.1-1.1.9-2.8,1.9-3.8,2.2-.9.4-2.2,1.8-2.7,3.2-1.1,2.9-3,3.3-3,.7,0-2-1.8-4.2-3.4-4.2-.5,0-.2.6.9,1.3,1.6,1.3,1.7,2.5,1.3,13-.4,8.9-.2,12.1.8,13.4,1.4,1.9,1.4,2,1.7-3.7.2-1.8.9-2.6,2.5-2.8,2-.3,2.2.1,2.2,4.2,0,10.9-11.6,11.8-14,1.1-1.6-6.8-1.2-14.6.8-16.2q1.5-1.3-.5-.4c-4.7,2.3-5.1,1-.9-3.2,2.3-2.3,3-3.2,1.6-2.1-1.4,1.2-4.1,2.5-6,2.9l-3.5.7,2.8-2.5c2.6-2.5,2.7-3,2.7-12.5,0-11.9,1.9-18.6,5.9-20.7,1.5-.7,3.3-2.1,4-2.9,1-1.2,3.4-1.6,9.5-1.7,4.4,0,9.9-.4,12.1-.8,6.4-1.4,11.1-1.2,18.8.5Z"/>
  <path class="cls-1" d="m75.1,68.7c.7,1.2,1.5,2,1.8,1.7.3-.2-.3-1.2-1.3-2.2-1.7-1.6-1.8-1.6-.5.5Z"/>
  <path class="cls-1" d="m78.9,70.8c.5,3.4.6,3.5.9.8.2-1.6,0-3.2-.5-3.7s-.7.7-.4,2.9Z"/>
  <path class="cls-1" d="m61.6,76.7c-.6,1.4-.5,1.5.5.6.7-.7,1-1.5.7-1.8s-.9.2-1.2,1.2Z"/>
  <path class="cls-1" d="m76.1,82.6c0,1.1.3,1.4.6.6.3-.7.2-1.6-.1-1.9-.3-.4-.6.2-.5,1.3Z"/>
  <path class="cls-1" d="m73,89c-.9.6-1,1-.3,1,.6,0,1.5-.5,1.8-1,.8-1.2.4-1.2-1.5,0Z"/>
  <path class="cls-1" d="m54.9,99.7c-1.3,1.6-1.2,1.7.4.4.9-.7,1.7-1.5,1.7-1.7,0-.8-.8-.3-2.1,1.3Z"/>
  <path class="cls-1" d="m82,112.9c0,.6.4,1.3,1,1.6s.7-.1.4-.9c-.7-1.8-1.4-2.1-1.4-.7Z"/>
  <path class="cls-1" d="m123.2,121c0,1.4.2,1.9.5,1.2.2-.6.2-1.8,0-2.5-.3-.6-.5-.1-.5,1.3Z"/>
  <path class="cls-1" d="m78,122.4c0,.2.8,1,1.8,1.7,1.5,1.3,1.6,1.2.3-.4s-2.1-2.1-2.1-1.3Z"/>
  <path class="cls-1" d="m123.2,127c0,1.4.2,1.9.5,1.2.2-.6.2-1.8,0-2.5-.3-.6-.5-.1-.5,1.3Z"/>
  <path class="cls-1" d="m260.4,45.4c-22.2,5.1-33.6,24.6-24,41.1,3.8,6.4,8.6,9.9,22.6,16.6,18.5,8.9,18.9,9.1,22.1,12.7,6.9,7.8,1.6,15.4-11.8,16.8-7.5.8-15.7-1.3-26.3-6.6l-8-4v19.9l4.3,2.5c8.3,4.8,16.3,6.8,27.7,6.7,26.2-.1,42.9-11.6,43-29.5,0-15.9-7.6-23.7-34.4-35.2-15.2-6.4-20.2-13.5-14-19.7s22.7-4.7,40.7,2.8c1.5.7,1.7-.2,1.7-9.4q0-10.1-2.7-11.2c-11.2-4.2-30.4-5.9-40.9-3.5Z"/>
  <path class="cls-1" d="m374.5,44.9c-20.9,3.4-38.2,14.5-46.3,29.8-10.6,20-6.8,45.8,8.7,60.7,11.1,10.5,26.3,15.7,46.1,15.8,11.3,0,19.2-1.6,28.6-5.7l5.4-2.4v-9.2c0-6.9-.3-9-1.2-8.6-14.3,6.3-23.5,8.3-33.9,7.3-10.5-1-17.5-4-24-10.5-7-7.1-9.3-13.2-9.3-24.6.1-16.6,9.6-28.8,25.9-33.1,10.3-2.8,23.8-1.5,34.9,3.4,2.7,1.2,5.2,2.2,5.7,2.2s.9-4.5.9-9.9v-9.9l-4.2-1.6c-10.6-3.8-26.6-5.4-37.3-3.7Z"/>
  <path class="cls-1" d="m481,45.1c-10.2,1.2-22.2,5.1-29.9,9.6-34.9,20.8-34.6,70.1.6,88.6,11.7,6.1,20.4,8,37.3,8,15.2,0,24.3-1.4,37-5.6l6.5-2.2.3-22.8.2-22.7h-25v32.9l-3.7.8c-2.1.4-9,.8-15.3.8-10.7-.1-11.9-.3-18-3.1-8.9-4.2-12.4-7.4-16-14.7-7.6-15.4-3.4-34.5,9.5-43.8,12.4-8.9,35-10.3,55-3.4,3.9,1.4,7.5,2.5,7.8,2.5.4,0,.7-4.5.7-10v-9.9l-5.2-1.5c-12.3-3.5-29.8-4.9-41.8-3.5Z"/>
  <path class="cls-1" d="m169.5,72.2c-4.9,13.3-9.2,24.8-9.4,25.6-.1.8,3.9,12.3,9,25.5l9.4,24.1.3-25.3c.1-13.9.1-36.2,0-49.6l-.3-24.3-9,24Z"/>
  <path class="cls-1" d="m0,97.9c0,27.2.2,49.2.4,49,.9-.8,18.6-46.7,18.6-48S2.4,52.6.9,50c-.5-.8-.9,20.7-.9,47.9Z"/>
  <path class="cls-1" d="m23,105.1c0,.3-4,10.9-9,23.5-4.9,12.5-8.6,23.1-8.2,23.5,1.4,1.3,76.5,43.9,76.8,43.6.2-.1-4.6-7.7-10.6-16.7-6-9.1-19.4-29.6-29.9-45.5-10.5-16-19.1-28.7-19.1-28.4Z"/>
  <path class="cls-1" d="m125.8,150.4c-16.3,24.8-29.5,45.2-29.4,45.4.3.3,75.6-42.5,76.9-43.7.6-.6-14.8-41.6-17.1-45.7-.4-.7-12.7,17.1-30.4,44Z"/>
</svg>