<?xml version="1.0" encoding="utf-8"?>
<svg version="1.1" id="Layer_1" xmlns="http://www.w3.org/2000/svg" xmlns:xlink="http://www.w3.org/1999/xlink" x="0px" y="0px"
	 viewBox="0 0 1001.01 189.63" style="enable-background:new 0 0 1001.01 189.63;" xml:space="preserve">
<style type="text/css">
	.st0{fill:#1f2937;}
	.st1{opacity:0.32;fill:#1f2937;enable-background:new    ;}
	.st2{opacity:0.24;fill:#1f2937;enable-background:new    ;}
</style>
<path class="st0" d="M654.05,185.78c0.73-6.57,1.36-12.22,1.98-17.74c9.55,0.8,18.69,1.69,27.84,2.25c2.84,0.17,5.88-0.13,8.59-0.98
	c7.82-2.42,12.5-7.72,13.14-18.53c-0.36-5.6-5.17-10.38-12.1-13.46c-5.88-2.62-11.83-5.1-17.72-7.69c-2.06-0.91-4.11-1.88-6.09-2.95
	c-13-6.96-19.14-17.6-17.71-32.51c1.34-14.01,9.15-23.31,21.61-28.39c14.78-6.03,30.12-5.63,45.69-1.74v18.08
	c-4.28-0.83-7.62-1.6-11.01-2.11c-7.99-1.2-15.98-2.11-23.79,1.1c-6.18,2.54-10.27,6.82-10.69,13.64
	c-0.4,6.49,3.02,11.06,8.64,13.92c4.88,2.48,9.92,4.62,14.85,7c5.5,2.66,11.1,5.16,16.39,8.19c12.7,7.27,16.17,22.14,13.12,34.46
	c-3.1,12.55-10.68,21.27-22.36,26.17C688.37,191.23,671.94,190.76,654.05,185.78L654.05,185.78z"/>
<path class="st0" d="M877.03,143.12h-56.85c-2.99,17.63,5.75,28.48,22.5,29.13c9.47,0.36,18.64-0.93,27.21-5.02
	c2.36,4.14,3.27,9.63,2.74,16.48c-18.39,6.46-36.98,9.19-55.65,0c-7.89-3.88-12.83-10.48-15.78-18.73c-4.95-13.85-5-27.91-0.97-41.8
	c2.94-10.14,8.94-18.41,18.34-24.04c23.2-13.9,51.58-2.06,57.49,24.18c0.42,1.88,0.87,3.79,0.94,5.69c0.14,4.16,0.04,8.32,0.04,14.1
	L877.03,143.12z M855.32,128.58c0.12-12.55-4.96-18.31-15.48-18.72c-11.49-0.45-18.28,5.97-19.58,18.72H855.32z"/>
<path class="st0" d="M963.22,143.38h-56.25c-2.11,18.81,6.35,29.05,24.02,28.73c8.88-0.16,17.72-2.23,27.65-3.57
	c0.62,3.75,1.42,8.67,2.33,14.22c-13.24,5.81-26.32,7.91-39.99,6.17c-3.8-0.48-7.6-1.41-11.26-2.59
	c-16.34-5.3-22.6-18.33-24.66-33.85c-1.27-9.58-0.97-19.34,1.94-28.76c8.72-28.21,34.86-35.31,58.03-25.91
	c7.79,3.16,13,9.59,15.8,17.48C963.86,123.83,965.42,132.66,963.22,143.38L963.22,143.38z M941.91,128.49
	c1.41-10.58-3.46-17.38-12.94-18.52c-12.52-1.5-19.95,4.56-22.08,18.52H941.91z"/>
<path class="st0" d="M746.99,111.94h-16.63V96.66c4.88-0.31,9.9-0.63,16.07-1.02c1.4-8.93-0.05-18.24,0.93-28.38
	c5.91-1.77,11.93-3.57,19.16-5.73c0.27,11.55,0.52,22.31,0.79,34.06c8.15,0.32,15.68,0.61,23.68,0.92v15.14h-24.06
	c0,4.6-0.08,8.04,0.02,11.49c0.36,12.54,0.17,25.13,1.38,37.59c0.92,9.5,5.21,11.95,14.47,10.65c2.46-0.35,4.91-0.77,7.76-1.23
	c1.36,6.05,1.73,11.29-0.63,16.72c-8.63,1.59-16.96,3.25-25.83,1.66c-10.31-1.85-15.46-8.4-16.73-18.44
	c-0.64-5.09-0.34-10.31-0.36-15.47C746.97,140.81,747,126.99,746.99,111.94L746.99,111.94z"/>
<path class="st0" d="M999.83,187.17h-18.51c-1.84-7.32-2.26-121.15-0.46-133.19c2.91-0.17,6.01-0.43,9.12-0.52
	c3.18-0.09,6.36-0.02,9.29-0.02c1.97,7.7,2.39,121.97,0.55,133.73L999.83,187.17z"/>
<path class="st0" d="M607.19,26.8h-30.34c-11,0-19.92,8.92-19.92,19.92v39.53h-46.45V26.8h-30.22c-10.81,0-19.57,8.76-19.57,19.57
	v140.76h49.78V124h46.45v62.7l50.26-0.78V26.8H607.19z"/>
<path class="st0" d="M322.8,44.29l-47.52,142.43h48.2l11-37.31h55.09l11.34,37.31h51.16L396.88,26.8h-49.81
	C336.06,26.8,326.29,33.84,322.8,44.29L322.8,44.29z M342.2,116.71l21.51-59.09l19.17,59.09H342.2L342.2,116.71z"/>
<g>
	<g>
		<path class="st0" d="M126.89,56.51c0,0-45.87-10.01-67.09-2.01c-6.52,2.46-11.26,7.22-11.85,14.78c0.93,5.21,4.21,8.65,8.95,10.53
			c6.27,2.48,14.68,4.74,21.09,6.84c11.31,3.7,22.84,6.75,33.98,10.89c17.94,6.66,24.38,21.65,22.17,44.79
			c-0.68,7.16-1.95,14.01-5.78,20.22c-13.67,22.17-44.5,25.23-55.94,25.25c-36.33,0.03-68.03-5.64-70.78-6.46v-34.78
			c3.28,0.59,38.13,6.7,53.47,6.96c7.85,0.13,14.91-0.31,21.69-3.6c8.07-3.91,12.27-13.27,6.69-18.41
			c-2.86-2.64-7.33-5.36-14.22-7.77c-10.93-3.82-23.99-6.14-34.82-10.18c-11.68-4.35-23.78-11.16-29.46-23
			c-9.47-19.75-6.6-49.25,18.52-61.78c36.28-18.1,91.91-6.97,91.91-6.97c5.15,0.6,10.65,4.9,10.79,10.08l0.67,24.63L126.89,56.51z"
			/>
		<g>
			<path class="st0" d="M267.85,127.02c-0.28,3.18-2.93,5.62-6.13,5.62h-68.81c-1.22,0-2.11,1.15-1.8,2.32
				c0,0,1.28,12.9,10.29,18.82c5.74,3.78,14.41,5.9,21.39,5.97c11.48,0.12,31.07-2.78,36.51-3.53c0.67-0.09,1.25,0.43,1.25,1.1
				v24.52c0,0-32.71,8.87-59.97,4.91c-25.21-3.66-46.2-15.48-52.37-42.45c-3.48-15.2-3.19-30.83,1.55-45.9
				c4.22-13.43,13.6-22.6,26.44-27.92c19.85-8.22,40.1-8.54,60.46-1.86c32.07,10.51,32.39,44.79,31.18,58.38L267.85,127.02z
				 M227.85,110.92c0,0,2.3-24.09-17.73-24.09s-17.73,24.09-17.73,24.09H227.85z"/>
			<path class="st0" d="M210.52,23.17C226.28,17.55,239.47,7.44,255.23,0c3.41,5.93,6.85,11.93,10.72,18.65
				c-2.51,2.53-4.33,5.27-6.87,6.78c-12.47,7.41-25.17,14.41-37.7,21.72c-7.43,4.34-14.41,4.07-21.83-0.34
				c-12.46-7.41-25.22-14.32-37.84-21.47c-2.18-1.24-4.28-2.63-7.4-4.57c3.66-6.42,7.1-12.44,11.03-19.33
				c3.41,1.02,6.52,1.45,9.14,2.82c8.56,4.49,16.91,9.39,25.42,13.98c3.38,1.82,6.97,3.25,10.63,4.93L210.52,23.17z"/>
		</g>
	</g>
	<g>
		<path class="st1" d="M126.89,56.51c0,0-45.87-10.01-67.09-2.01c-6.52,2.46-11.26,7.22-11.85,14.78c0.93,5.21,4.21,8.65,8.95,10.53
			c6.27,2.48,14.68,4.74,21.09,6.84c11.31,3.7,22.84,6.75,33.98,10.89c17.94,6.66,24.38,21.65,22.17,44.79
			c-0.68,7.16-1.95,14.01-5.78,20.22c-13.67,22.17-44.5,25.23-55.94,25.25c-36.33,0.03-68.03-5.64-70.78-6.46v-34.78
			c3.28,0.59,38.13,6.7,53.47,6.96c7.85,0.13,14.91-0.31,21.69-3.6c8.07-3.91,12.27-13.27,6.69-18.41
			c-2.86-2.64-7.33-5.36-14.22-7.77c-10.93-3.82-23.99-6.14-34.82-10.18c-11.68-4.35-23.78-11.16-29.46-23
			c-9.47-19.75-6.6-49.25,18.52-61.78c36.28-18.1,91.91-6.97,91.91-6.97c5.15,0.6,10.65,4.9,10.79,10.08l0.67,24.63L126.89,56.51z"
			/>
		<g>
			<path class="st2" d="M267.85,127.02c-0.28,3.18-2.93,5.62-6.13,5.62h-68.81c-1.22,0-2.11,1.15-1.8,2.32
				c0,0,1.28,12.9,10.29,18.82c5.74,3.78,14.41,5.9,21.39,5.97c11.48,0.12,31.07-2.78,36.51-3.53c0.67-0.09,1.25,0.43,1.25,1.1
				v24.52c0,0-32.71,8.87-59.97,4.91c-25.21-3.66-46.2-15.48-52.37-42.45c-3.48-15.2-3.19-30.83,1.55-45.9
				c4.22-13.43,13.6-22.6,26.44-27.92c19.85-8.22,40.1-8.54,60.46-1.86c32.07,10.51,32.39,44.79,31.18,58.38L267.85,127.02z
				 M227.85,110.92c0,0,2.3-24.09-17.73-24.09s-17.73,24.09-17.73,24.09H227.85z"/>
			<path class="st0" d="M210.52,23.17C226.28,17.55,239.47,7.44,255.23,0c3.41,5.93,6.85,11.93,10.72,18.65
				c-2.51,2.53-4.33,5.27-6.87,6.78c-12.47,7.41-25.17,14.41-37.7,21.72c-7.43,4.34-14.41,4.07-21.83-0.34
				c-12.46-7.41-25.22-14.32-37.84-21.47c-2.18-1.24-4.28-2.63-7.4-4.57c3.66-6.42,7.1-12.44,11.03-19.33
				c3.41,1.02,6.52,1.45,9.14,2.82c8.56,4.49,16.91,9.39,25.42,13.98c3.38,1.82,6.97,3.25,10.63,4.93L210.52,23.17z"/>
		</g>
	</g>
</g>
</svg>
