<?xml version="1.0" encoding="utf-8"?>
<svg version="1.1" id="Layer_1" xmlns="http://www.w3.org/2000/svg" xmlns:xlink="http://www.w3.org/1999/xlink" x="0px" y="0px"
	 viewBox="0 0 2500 606" style="enable-background:new 0 0 2500 606;" xml:space="preserve">
<style type="text/css">
	.st0{fill:#1f2937;}
</style>
<g>
	<path class="st0" d="M920.6,167.8H591.9v89.6h116v337.2h96.8V257.4h116v-89.6H920.6z"/>
	<path class="st0" d="M956.7,397.7c3-13.3,6-27.8,18.7-41.7c9.1-9.7,24.8-20.5,47.1-20.5c16.3,0,33.8,6,45.3,17.5
		c13.3,13.9,15.7,31.4,17.5,44.7H956.7L956.7,397.7z M1107.6,478.6c-11.5,22.3-29,55.6-79.7,55.6c-50.1,0-72.5-39.2-71.9-78.5h225.2
		c-1.2-35.6-3.6-97.2-44.7-141.3c-40.5-43.5-94.8-45.3-113.5-45.3c-124.4,0-161.8,97.8-161.8,173.9c0,103.2,65.8,163,159.4,163
		c50.7,0,91.8-19.3,118.9-44.7c16.3-15.1,27.2-30.8,38-47.1L1107.6,478.6z M1313.7,307.7c9.1-9.7,15.1-16.9,31.4-24.7
		c14.5-6,35-11.5,57.4-11.5c18.7,0,39.9,3.6,56.2,12.7c33.2,17.5,41.6,45.9,41.6,94.8v215.5H1408V417c0-28.4-0.6-38.6-4.2-47.1
		c-7.2-16.9-23.5-24.2-41.6-24.2c-48.9,0-48.9,39.2-48.9,78.5v170.3h-93V280h93.6L1313.7,307.7z M1725,443.6
		c-0.6,32.6-1.8,61.6-32.6,80.9c-9.7,6-20.5,10.3-32,10.3c-21.7,0-35-16.9-35-32c0-24.1,24.2-33.2,39.9-39.2L1725,443.6z
		 M1640.4,368.7c2.4-11.5,7.8-36.8,48.9-36.8c33.2,0,34.4,24.2,35.6,38.7v16.9c-39.2,7.3-99,18.1-124.4,29
		c-26,10.9-66.4,39.8-66.4,90.6c0,44.1,30.8,96,103.2,96c46.5,0,73-19.9,96.6-37.4v29h91.2c-7.3-10.9-9.1-15.7-9.1-49.5V361.5
		c0-81.5-93.6-90.6-132.2-90.6c-36.9,0-74.3,4.8-103.2,27.8c-28.4,22.3-31.4,48.3-33.2,70L1640.4,368.7z M1958.8,312
		c20.5-17.5,42.9-31.4,91.2-36.2v82.1l-30.8,4.8c-44.7,7.9-58,14.5-58,54.3v177.5h-93V278.7h90.6L1958.8,312z M2085.7,167.7h91.8
		v71.9h-91.8V167.7z M2085.7,278.7h91.8v315.8h-91.8V278.7z M2256.1,488.2c25.4,24.8,56.8,43.5,91.8,43.5c22.3,0,56.1-7.3,56.1-30.8
		c0-10.9-6.6-15.1-12.1-18.1c-13.9-7.2-35.6-9.1-53.7-12.1c-13.9-2.4-28.4-5.4-42.3-9.7c-19.3-5.4-38.7-13.3-52.5-27.2
		c-13.9-13.9-23.6-35.6-23.6-59.2c0-51.9,44.7-105.6,132.8-105.6c74.3,0,118.9,32,140.7,47.1l-57.4,53.1
		c-29.6-22.9-57.4-31.4-79.1-31.4c-36.3,0-44.7,14.5-44.7,23.6c0,18.1,19.9,21.7,50.1,27.1c63.4,11.5,137.1,28.4,137.1,103.3
		c0,74.2-74.9,110.5-149.1,110.5c-87.5,0-132.8-42.3-152.7-61L2256.1,488.2z"/>
</g>
<path class="st0" d="M0.5,412.1H476v14.7H0.5V412.1z M0.5,167.8H476v89.6H0.5V167.8z M0.5,33.2H476v22.4H0.5V33.2z"/>
<path class="st0" d="M0.5,369.6H476V392H0.5V369.6z M0.5,83.1H476v44.8H0.5V83.1z"/>
<path class="st0" d="M0.5,297.3H476v44.8H0.5V297.3z M0.5,0H476v14.7H0.5V0z"/>
</svg>
