<?xml version="1.0" encoding="utf-8"?>
<svg version="1.1" id="Layer_1" xmlns="http://www.w3.org/2000/svg" xmlns:xlink="http://www.w3.org/1999/xlink" x="0px" y="0px"
	 viewBox="0 0 342.4 384.63" style="enable-background:new 0 0 342.4 384.63;" xml:space="preserve">
<style type="text/css">
	.st0{fill:#1f2937;}
</style>
<g transform="translate(0.000000,600.000000) scale(0.100000,-0.100000)">
	<path class="st0" d="M1592,5994.75c-648-41-1241-417-1549-981l-43-78h1711h1711l-26,52c-172,339-494,652-848,823
		c-207,100-461,170-661,180c-55,3-118,7-140,9C1725,6000.75,1655,5998.75,1592,5994.75z M1370,5718.75c-259-240-410-403-479-516
		l-34-56l-243-1H370l30,38c123,155,387,350,627,463c133,62,401,156,413,144C1442,5788.75,1411,5756.75,1370,5718.75z M2205,5725.75
		c186-65,396-178,557-298c79-58,238-208,272-254l19-28l-243,1h-243l-55,86c-58,91-282,330-444,473c-46,41-85,78-85,82
		C1982,5796.75,2092,5765.75,2205,5725.75z M1612,5410.75v-265h-270c-162,0-270,4-270,9c0,19,121,168,197,243c96,95,313,277,331,278
		C1609,5675.75,1612,5616.75,1612,5410.75z M1951,5578.75c144-119,292-267,354-353c26-35,47-68,47-72s-121-8-270-8h-270v265
		c0,189,3,265,11,265C1829,5675.75,1887,5631.75,1951,5578.75z"/>
	<path class="st0" d="M642,4555.75v-160h215h215v-480v-480h215h215v480v480h340h340l32-28c27-25,31-36,31-76c0-38-5-53-27-74l-26-27
		l-240-3l-240-3v-108v-108l213-267l212-266h268h268l-45,58c-25,31-120,149-210,262l-164,205l51,8c198,31,271,71,327,181
		c34,68,35,71,35,190c0,103-4,128-22,169c-33,70-103,140-176,173l-62,29l-882,3l-883,2V4555.75z"/>
	<path class="st0" d="M28,3163.75c79-155,178-292,313-432c256-263,550-435,892-522c299-75,656-75,949,2c518,136,952,473,1205,937
		l37,67H1713H2L28,3163.75z M912,2918.75c58-91,282-330,444-473c46-41,85-78,85-82c-1-9-109,22-222,62c-186,65-396,178-557,298
		c-79,58-238,208-272,255l-19,27l243-1h243L912,2918.75z M1612,2740.75c0-189-3-265-11-265c-18,0-236,185-340,289
		c-89,90-189,212-189,232c0,5,119,9,270,9h270V2740.75z M2352,2996.75c0-22-124-172-211-256c-107-102-302-265-318-265
		c-8,0-11,79-11,265v265h270C2244,3005.75,2352,3001.75,2352,2996.75z M3024,2968.75c-38-47-151-157-217-210
		c-154-124-413-268-600-333c-105-36-225-71-225-64c0,2,33,35,73,71c258,239,409,403,478,516l34,56l243,1h244L3024,2968.75z"/>
</g>
</svg>
