<?xml version="1.0" encoding="utf-8"?>
<svg version="1.1" id="layer" xmlns="http://www.w3.org/2000/svg" xmlns:xlink="http://www.w3.org/1999/xlink" x="0px" y="0px"
	 viewBox="0 0 600 152.1" style="enable-background:new 0 0 600 152.1;" xml:space="preserve">
<style type="text/css">
	.st0{fill-rule:evenodd;clip-rule:evenodd;fill:#1f2937;}
</style>
<path class="st0" d="M534,104.5h22.3L545,76.6 M600,151.7h-29.2l-6.8-21h-36.5l-8.6,21h-29.6l37.3-104.8h36.9L600,151.7z"/>
<path class="st0" d="M150.6,0.2c0.1,2.9,0.1,6.1,0.1,9.1c0,75.7-32.9,137-73.5,137S3.7,85,3.7,9.3c0-3-0.2-6.4-0.1-9.3H0v153.7
	h153.7V0"/>
<path class="st0" d="M108.7,1.1c0,52.5-14,97.1-31.2,97.1S45.9,53.6,45.9,1.1"/>
<polyline class="st0" points="482.6,151.7 482.6,46.9 456.1,46.9 429.3,92.2 403.3,46.9 372.8,46.9 372.8,151.7 403.3,151.7 
	403.3,107.7 427.4,151.2 451.6,107.3 451.6,151.7 "/>
<polyline class="st0" points="294,46.9 324.1,46.9 324.2,126.1 364.6,126.1 364.6,152.1 294,152.1 "/>
<path class="st0" d="M281.8,106.1c0,25.7-20.7,46.5-46.3,46.5c-25.5,0-46.2-20.8-46.2-46.5l0.2-59.2h29.8v58.8
	c0,9.2,6.8,16.7,15.9,16.7c9.2,0,16.4-7.5,16.4-16.7V46.9h30.1"/>
</svg>
