<svg xmlns="http://www.w3.org/2000/svg" version="1.1" xmlns:xlink="http://www.w3.org/1999/xlink" width="196.7" height="361.9"><svg xmlns="http://www.w3.org/2000/svg" version="1.1" xmlns:xlink="http://www.w3.org/1999/xlink" width="196.7" height="361.9"><svg version="1.1" id="Layer_1" xmlns="http://www.w3.org/2000/svg" xmlns:xlink="http://www.w3.org/1999/xlink" x="0px" y="0px" viewBox="0 0 196.7 361.9" style="enable-background:new 0 0 196.7 361.9;" xml:space="preserve">
<style type="text/css">
	.st0{fill:#F05354;}
	.st1{fill:url(#SVGID_1_);}
</style>
<path class="st0" d="M103.6,125.8c18.5-0.3,36.1,1.5,52.6,9.2c41.5,19.4,39.3,65.9,21.3,87.6c-2.5,3-5.4,5.9-8.5,8.4
	c-2.9,2.4-6.2,4.3-8.2,5.5c7.5,6.1,16.2,11.3,22.7,18.7c17.1,19.4,17.5,50.7,1.8,73.4c-12.3,18-30.2,27.2-51,31.2
	c-7,1.4-14.2,2-21.3,2c-35.8,0.2-71.6,0.1-107.5,0.1c-1.8,0-3.6,0-5.6,0V125.8C34.5,125.8,68.8,125.8,103.6,125.8 M108.9,259H52.7
	v63.2c1,0.2,1.8,0.4,2.6,0.4c15.3,0,30.7,0.5,45.9-0.2c8.2-0.4,16.6-2,24.2-4.8c10.7-4,15.3-13.2,16.1-24.3
	c0.9-12-2.1-22.5-13.4-28.3C122.5,262,115.9,260.9,108.9,259 M114.4,217.6c17.8-4.6,26.1-17.6,21.3-33.6c-3-10.2-12.6-17.5-25.6-18
	c-18.8-0.6-37.6-0.2-56.4-0.3c-0.3,0-0.6,0.3-1.1,0.6v53.1C73.1,218.9,93.4,218.4,114.4,217.6L114.4,217.6z"></path>
<linearGradient id="SVGID_1_" gradientUnits="userSpaceOnUse" x1="0" y1="-326.8082" x2="196.7138" y2="-326.8082" gradientTransform="matrix(1 0 0 -1 0 -278.0813)">
	<stop offset="0" style="stop-color:#66ABDC"></stop>
	<stop offset="1" style="stop-color:#67C6E0"></stop>
</linearGradient>
<path class="st1" d="M0,98.2c0,0,137.4,7.3,196.7-98.2C196.7,0,100.2-17.1,0,98.2z"></path>
</svg></svg><style>@media (prefers-color-scheme: light) { :root { filter: none; } }
@media (prefers-color-scheme: dark) { :root { filter: none; } }
</style></svg>